<?xml version="1.0" encoding="iso-8859-1"?>
<!-- Generator: Adobe Illustrator 24.1.0, SVG Export Plug-In . SVG Version: 6.00 Build 0)  -->
<svg version="1.1" id="&#x30EC;&#x30A4;&#x30E4;&#x30FC;_1"
	 xmlns="http://www.w3.org/2000/svg" xmlns:xlink="http://www.w3.org/1999/xlink" x="0px" y="0px" viewBox="0 0 282 33"
	 style="enable-background:new 0 0 282 33;" xml:space="preserve">
<g>
	<path d="M42.452,2.09c2.252,0.531,4.096,2.137,4.954,4.285c2.341,5.861,3.922,12.108,4.621,18.619
		c0.326,3.033-1.789,5.788-4.806,6.239c-6.877,1.028-13.914,1.566-21.078,1.566s-14.201-0.537-21.078-1.566
		c-3.017-0.451-5.132-3.206-4.806-6.239c0.699-6.511,2.28-12.758,4.621-18.619C5.736,4.228,7.58,2.621,9.832,2.09
		c5.236-1.235,10.696-1.89,16.31-1.89C31.755,0.201,37.215,0.856,42.452,2.09z M26.134,4.453c-4.403,0-8.705,0.429-12.869,1.245
		c-2.141,0.42-3.856,2.039-4.391,4.154c-0.918,3.627-1.524,7.377-1.791,11.221c-0.156,2.248,1.504,4.23,3.744,4.483
		c5.024,0.568,10.131,0.865,15.307,0.865s10.283-0.297,15.307-0.865c2.239-0.253,3.9-2.235,3.744-4.483
		c-0.267-3.844-0.873-7.595-1.791-11.221c-0.535-2.115-2.25-3.734-4.391-4.154C34.839,4.882,30.537,4.453,26.134,4.453z"/>
	<g>
		<g>
			<path d="M68.196,6.903h7.407c3.596,0,6.11,2.515,6.11,6.245c0,3.731-2.514,6.327-6.11,6.327h-3.919v6.623h-3.488V6.903z
				 M74.955,16.446c2.028,0,3.217-1.297,3.217-3.298c0-1.973-1.189-3.243-3.162-3.243h-3.325v6.542H74.955z"/>
			<path d="M87.579,6.903h3.487v16.194h8.3v3H87.579V6.903z"/>
			<path d="M116.571,21.177h-6.731l-1.622,4.92h-3.596l6.758-19.194h3.65l6.758,19.194h-3.595L116.571,21.177z M113.192,10.229
				c0,0-0.432,1.892-0.811,2.974l-1.703,5.136h5.028l-1.703-5.136c-0.352-1.081-0.757-2.974-0.757-2.974H113.192z"/>
			<path d="M131.237,18.068l-6.379-11.165h3.947l3,5.651c0.622,1.189,1.135,2.595,1.163,2.567h0.055c0,0,0.54-1.378,1.162-2.567
				l2.974-5.651h3.947l-6.379,11.165v8.028h-3.488V18.068z"/>
			<path d="M171.881,6.903h6.191c2.081,0,3.028,0.162,3.866,0.541c1.919,0.865,3.136,2.703,3.136,5.244
				c0,2.298-1.217,4.433-3.244,5.244v0.055c0,0,0.271,0.27,0.649,0.946l3.947,7.164h-3.893l-3.811-7.164h-3.353v7.164h-3.487V6.903z
				 M178.504,15.906c1.866,0,3.028-1.109,3.028-3.028c0-1.839-0.784-2.974-3.515-2.974h-2.649v6.001H178.504z"/>
			<path d="M200.861,6.579c5.651,0,9.922,4.299,9.922,9.786c0,5.651-4.271,10.057-9.922,10.057c-5.651,0-9.922-4.406-9.922-10.057
				C190.939,10.877,195.211,6.579,200.861,6.579z M200.861,23.232c3.514,0,6.326-2.92,6.326-6.867c0-3.785-2.812-6.596-6.326-6.596
				c-3.514,0-6.326,2.812-6.326,6.596C194.536,20.312,197.347,23.232,200.861,23.232z"/>
			<path d="M217.297,6.903h3.487v12.301c0,2.568,1.676,4.028,4.245,4.028s4.271-1.46,4.271-4.055V6.903h3.488v12.301
				c0,4.299-3.11,7.218-7.731,7.218c-4.65,0-7.759-2.919-7.759-7.218V6.903z"/>
			<path d="M241.184,6.903h3.488l7.272,11.084c0.73,1.108,1.595,2.974,1.595,2.974h0.054c0,0-0.19-1.839-0.19-2.974V6.903h3.46
				v19.194h-3.46l-7.272-11.057c-0.73-1.108-1.594-2.973-1.594-2.973h-0.055c0,0,0.19,1.838,0.19,2.973v11.057h-3.488V6.903z"/>
			<path d="M265.442,6.903h6.543c5.92,0,9.786,3.515,9.786,9.57c0,6.056-3.866,9.624-9.786,9.624h-6.543V6.903z M271.795,23.097
				c3.893,0,6.38-2.298,6.38-6.624c0-4.271-2.541-6.569-6.38-6.569h-2.865v13.193H271.795z"/>
		</g>
	</g>
	<path d="M157.742,15.987v3.001h2.946v0.558c0,2.252-2.196,3.346-3.965,3.616c-0.274,0.037-0.551,0.07-0.846,0.07
		c-3.596,0-6.434-2.703-6.434-6.867c0-3.622,2.298-6.596,6.596-6.596c3.055,0,5.109,1.839,5.109,1.839l1.73-2.595
		c0,0-2.433-2.434-7.137-2.434c-5.703,0-9.894,4.326-9.894,9.894c0,6.029,4.353,9.948,9.408,9.948c3.569,0,5.57-2.055,5.57-2.055
		h0.054c0,0-0.027,0.405-0.027,0.811v0.919h2.974v-10.11H157.742z"/>
</g>
</svg>
