<svg xmlns="http://www.w3.org/2000/svg" viewBox="0 0 3103.52 174.05"><defs><style>.cls-1{fill:#fff;}</style></defs><title>アセット 3</title><g id="レイヤー_2" data-name="レイヤー 2"><g id="レイヤー_1-2" data-name="レイヤー 1"><path d="M1959.44,61.82c1.73-.58,3.14-1,4.52-1.52,4.34-1.61,8.65-3.3,13-4.86,3.17-1.13,3.73-1.65,3.64-4.94-.13-4.73-.44-9.45-.63-14.17-.08-1.81-.07-3.62-.08-5.42,0-3.62.07-7.25-.06-10.86a18.49,18.49,0,0,0-.94-3.82c.7-.56,1.56-1.19,2.37-1.89,1.84-1.56,4.18-.85,4.45,1.58.41,3.69.52,7.41.71,11.12.09,1.91,0,3.82.08,5.73.21,5.53.45,11.06.68,16.59,0,.88.11,1.75.17,2.88a45.48,45.48,0,0,0,10.11-2.16c.48-.14.93-.38,1.41-.49a3.79,3.79,0,0,0,3.3-4.05c0-4.83-.06-9.66,0-14.48,0-2,.23-4,.35-6,.09-1.7.19-3.4.26-5.11.1-2.22,1-3.41,2.55-3.45a3.79,3.79,0,0,1,3.75,3.53,5.47,5.47,0,0,1,0,1.51c-1.68,7.29.21,14.65-.47,22a14.45,14.45,0,0,0,.44,3c1.48-.33,2.72-.53,3.91-.89,3-.92,5.93-1.91,8.9-2.85a9.25,9.25,0,0,1,1.47-.35c2.12-.3,3.41.32,4,1.87a3.41,3.41,0,0,1-2.16,4.39c-2.34.91-4.79,1.51-7.19,2.25s-5,1.49-7.47,2.38a2.8,2.8,0,0,0-1.62,1.54,28.47,28.47,0,0,0-1,5.92c-.16,4.22,0,8.45-.15,12.67a48.34,48.34,0,0,1-1.12,6.81c-.38,2-1,3.8.06,5.86.91,1.79,0,3.53-2.37,4.47-2.78,1.12-5.66,2-8.53,2.86-1.63.5-3.33.77-5,1.25s-3.18.7-4.62-1c-1,1.57-1.83,3-2.76,4.4a2.84,2.84,0,0,1-4.43.32c-.84-.93-1.07-2.07,0-2.9s1.17-1.88.75-3.17a6.57,6.57,0,0,1-.27-3,125.13,125.13,0,0,0,1.08-19.54c0-1.81.22-3.61.29-5.42,0-.77-.06-1.55-.11-2.54a5.64,5.64,0,0,0-1.62,0c-5.59,2-11.15,4.08-16.75,6a2.57,2.57,0,0,0-2,3.17c.61,5.8,1.17,11.61,1.58,17.43.34,4.72.43,9.45.67,14.18.1,2,.27,4,.47,6,.42,4.42.71,8.8-.61,13.18-.57,1.87-.53,3.93-.82,6.31,1.09-.22,1.81-.39,2.54-.51,5.25-.88,10.5-1.72,15.75-2.62a24.68,24.68,0,0,0,4.07-1c6.27-2.26,12.86-3.17,19.29-4.75,6.1-1.49,12.2-1.08,18.31-.82a27.14,27.14,0,0,1,7.1,1.25c1.33.43,2.43,1.7,3.53,2.7a1.74,1.74,0,0,1,.41,2.44c-.68,1-1.6,1.79-2.8,1.22-4.52-2.17-9.46-1.66-14.21-2.24a17.27,17.27,0,0,0-5.68.61c-8.63,1.9-17.31,3.54-25.75,6.31-3.6,1.18-7.46,1.57-11.2,2.35s-7.68,1.58-11.49,2.46a15.17,15.17,0,0,0-3,1.27c-1.21.56-2.4,1.2-3.63.08a3.89,3.89,0,0,1-1.19-4.12c.35-1.36.69-2.73,1-4.09a73.25,73.25,0,0,0,1.4-26.39c-.27-2.2-.26-4.43-.41-6.64q-.78-11.43-1.58-22.87a7.56,7.56,0,0,0-.37-1.37,13.91,13.91,0,0,0-2,.22c-1.06.27-2.12.6-3.15,1-1.6.57-3,.41-4-1.09-.19-.27-.6-.4-1.2-.78a8.67,8.67,0,0,1-.37,2.2,5,5,0,0,1-1.53,2.06c-1.09.7-5.57-.49-6.46-1.5-1.22-1.41-1.23-2.62.13-4,1.13-1.14,2.37-2.16,3.54-3.26a1.87,1.87,0,0,1,2.47-.21,3,3,0,0,0,2.82.48,51,51,0,0,1,5.69-1.83c2.18-.62,2.54-.87,2.2-3.14-.55-3.78-1.34-7.53-2-11.3a25.64,25.64,0,0,1-.39-3.9c-.08-3.61-.77-4.35-4.46-4.46-.1-.33-.42-.88-.29-1,1.34-1.53,2.41-3.4,4.59-3.95,1.77-.44,4.15,1,4.82,3.21s1.15,4.47,1.68,6.72C1957.11,51.67,1958.2,56.46,1959.44,61.82Zm26.19,27.9c2.94-1.26,5.4-2.11,7.65-3.34,1.69-.92,3.22-2,5.16-1.38,2.37-3.53,3.09-5.83,3.14-9.4.09-5.83.22-11.66.29-17.49a9.45,9.45,0,0,0-.39-1.92,16.58,16.58,0,0,0-2.43.37c-2.67.81-5.3,1.75-8,2.54-3,.87-3.15.91-3.45,4-.33,3.4-.56,6.82-.69,10.23-.16,4.42,0,8.85-1.27,13.17A14.49,14.49,0,0,0,1985.63,89.72Z"/><path d="M2396,57.47c1.36,0,2.39.08,3.4,0,1.79-.17,3.57-.46,5.36-.66a11,11,0,0,0,2.39-.13c4.49-1.62,9-.51,13.47-.14,3.7.31,5,1.53,5.68,5.15a20.91,20.91,0,0,1-.13,10.45,22.41,22.41,0,0,0-1,10.14c.33,2.16,0,2.75-2.13,3.21-4.32.94-8.66,1.88-13,2.54-5.05.76-10.14,1.23-15.51,1.85a11.31,11.31,0,0,0-.59,1.31,3,3,0,0,1-5.81-.17c-.73-2.92-1.32-5.88-1.95-8.82l-3.12-14.5a33.8,33.8,0,0,1-4.2-.55c-2.18-.57-2.51-1.71-1.13-3.45.35-.44.69-.89,1.47-1.9-1.4,0-2.31-.23-3,0-5.37,2.06-10.95,2.43-16.61,2.29a10.19,10.19,0,0,0-1.42.19c-.13,1-.25,1.93-.4,2.89a2.18,2.18,0,0,1-1.88,2.07,2.28,2.28,0,0,1-2.53-1.22,3.9,3.9,0,0,1-.58-1c-.44-2.84-2-5.41-1.71-8.47a19.62,19.62,0,0,0-.36-5.39,88.8,88.8,0,0,1-1.23-19.2,75.6,75.6,0,0,0-.48-9.62,3.37,3.37,0,0,0-1.2-1.92c-2-1.79-4.35-2.91-7.12-2.09-1-3.85.75-5.76,4.26-5,1.86.39,3.73.77,5.6,1.07,3.47.54,4.83,1.94,5.43,5.62a7.44,7.44,0,0,0,.56,1.52c5-.84,10-1.7,14.89-2.43a20.9,20.9,0,0,1,9.56.4c1.89.59,2.5,1.2,2.74,3.08,0,.1,0,.2,0,.3.45,7.82,1,15.64,1.33,23.46a73.44,73.44,0,0,1-.12,7.85c-.17,3-.24,3,3.11,4a40.19,40.19,0,0,0,6.54-11,49.66,49.66,0,0,0,2.42-5.82c1.37-4.71,2.52-9.48,3.78-14.21a15.24,15.24,0,0,1,.7-2c.48-1.19,1-2.36,1.49-3.54-3.35-2-6.76,0-9.88-.87-1.16-2.95.35-5.69,3.33-5.85,8.85-.5,17.69-1,26.54-1.26,4.31-.14,8.64.18,13,.27,1.4,0,2.55.38,3.15,1.83s.84,3-.49,4.17c-1.84,1.59-2.61,3.77-3.69,5.81a40.32,40.32,0,0,1-2.6,4,67.43,67.43,0,0,1-5,7.09c-2.33,2.61-4.77,5.34-7.7,7.12-2.45,1.49-5.59.67-7.87-1.3a43.45,43.45,0,0,1-4.39-5c-1.64-1.93-2.24-1.85-3.18.54A99.67,99.67,0,0,1,2397,55.22,18.72,18.72,0,0,0,2396,57.47Zm-7,8.12c.69,2.39,1.4,4.36,1.81,6.39.68,3.33,1.08,6.72,1.76,10.06.48,2.36,1.26,2.78,3.61,2.45a7.32,7.32,0,0,0,2-.48,24.3,24.3,0,0,1,8.78-1.85,83.47,83.47,0,0,0,8.67-.89c3.11-.54,3.44-1,3.71-4.13.32-3.69.53-7.39.85-11.07.19-2.23-.14-3-2.39-3.33a30.65,30.65,0,0,0-6.28,0c-2,.13-4,.82-6,.72C2400,63.14,2394.71,64.84,2389,65.59Zm-10.48-19.47c-.14-2.25-.25-3.91-.35-5.58-.22-3.49-.59-7-.6-10.47,0-2.4-.2-3.08-2.54-2.82-4.68.53-9.37,1.12-14,2-3.68.72-4.87,2.65-4.82,6.42,0,1.51,0,3,0,4.52s0,3.22.13,4.82c.24,2.34,1.13,2.9,3.38,2.27a13.83,13.83,0,0,0,2.79-1.06c3.29-1.79,7-1.4,10.52-2.08.87-.17,1.92.46,2.86.79C2376.56,45.19,2377.17,45.51,2378.55,46.12Zm27.18-10.46a45.22,45.22,0,0,1,4.35,3.1c3.52,3.25,7.73,2.41,10.22-1.78,2.3-3.86,5-7.51,7.6-11.15.65-.9,1.71-1.57,1.28-2.81s-1.75-1.16-2.83-1.24a11,11,0,0,0-1.51.06c-2.81.1-5.63.41-8.43.25-3-.18-5.67-.15-6.89,3.25a1.77,1.77,0,0,1-.35.49C2406.73,28.75,2406.27,32.32,2405.73,35.66ZM2377.66,56c.7-1.86-1.82-2.72-1.95-4.49,0-.38-.56-.8-1-1.05a1.91,1.91,0,0,0-1.16-.2,56.41,56.41,0,0,0-6.21.95c-3.13.79-6.12,2.45-9.53.85a8.69,8.69,0,0,0,.16,5.22,1.45,1.45,0,0,0,1.8,1.18c2.75-.47,5.49-1,8.25-1.39C2371.09,56.67,2374.14,56.4,2377.66,56Z"/><path d="M2169.92.35c3.87-.81,4.08-.38,4.61,3.12,1.35,9.06-.22,18.09.09,27.14.21,6,.07,12.07.11,18.1a24.45,24.45,0,0,0,.31,2.69c1.83-.35,3.49-.55,5.08-1a45.79,45.79,0,0,1,11.86-2,42.62,42.62,0,0,0,5.29-1c3.08-.46,6.16-1,9.26-1.24,1.63-.15,3.37.18,4.18,1.84s.31,3.26-.95,4.7a12.29,12.29,0,0,0-1.42,2.63,40.32,40.32,0,0,1-2.42,4.83A126.31,126.31,0,0,1,2192.71,77c-3.28,3.47-7.28,5.54-11.08,8.08a6.19,6.19,0,0,1-1.69.62c-2.67.79-2.72.79-2.69,3.4.06,4.43.37,8.86.21,13.27-.15,3.9-.8,7.78-1.24,11.67a7,7,0,0,0-.18.89c.22,5.11-1.57,9.9-2.38,14.84-.5,3.05-1.64,5.55-5.1,6.84,0-.82-.25-1.61,0-2,1.12-1.64.82-3.34.81-5.17a96.19,96.19,0,0,1,.71-12.35,118.51,118.51,0,0,0,.89-21c-.13-2.51-.07-5-.13-7.55a9,9,0,0,0-.27-2.39c-.68-2.13-2-2.71-3.94-1.78-3.09,1.44-6.06,3.12-9.2,4.4a47,47,0,0,1-7.23,2.05c-2.41.57-4.88.93-7.49,1.41.21.93.31,1.61.52,2.25.42,1.25.53,2.47-.77,3.19s-2.35.1-3.25-.83c-1.26-1.3-2.52-2.6-3.72-4-4.29-4.86-7.11-10.71-10.66-16.06-2.23-3.34-2.41-7.36-3.22-11.24,2-1,3.68-1.62,5.91-.89a7.53,7.53,0,0,0,4.94-.5c4.7-2.06,9.71-3.21,14.48-5,5.42-2,11.16-2.57,16.61-4.31l.29-.09c1.34-.3,3.32-.19,3.87-1,.78-1.17.65-3,.63-4.61-.05-4.31-.31-8.62-.34-12.93,0-2.61.27-5.23.33-7.84.09-4.62.09-9.24.16-13.86a18,18,0,0,1,1.18-7.1,8.09,8.09,0,0,0,.2-2.93C2169.94,3.08,2169.92,1.79,2169.92.35Zm-30.18,88.74a6.82,6.82,0,0,1,5.41-4.18,31.77,31.77,0,0,0,6.88-1.83c5.51-2.3,11.17-4.25,16.81-6.35-.18-4.6-.31-9.1-.56-13.59-.12-2.08-1-2.55-3.4-2-3.32.77-6.67,1.44-9.93,2.45C2147.27,66,2139.64,68.47,2132,71a9.21,9.21,0,0,0-2,1.41C2133.56,77.76,2135.44,83.76,2139.74,89.09Zm36-13.43c4.13-.75,7.74-1.52,11.39-2a3.36,3.36,0,0,0,2.62-1.67q3.39-5.16,6.86-10.26a14.83,14.83,0,0,1,2.93-3.76c1.74-1.3,1.46-2.58.75-4.33a9.1,9.1,0,0,0-1.48,0c-6.6,1.16-13.21,2.28-19.8,3.53a3.68,3.68,0,0,0-3.34,3.69c-.16,4.11-.41,8.21-.53,12.31A9.69,9.69,0,0,0,2175.76,75.66Z"/><path d="M2916,65.43c.07.21,0,0-.05-.16-1.86-3.79-3.62-4.53-7.7-3.07-2.45.88-4.78,2.14-7.28,2.85a17.56,17.56,0,0,1-5.91.55c-2-.15-2.34-1-1.76-3.3,3.8-1.58,7.72-2.65,11.11-5.08a17.05,17.05,0,0,1,5.83-2.22c2.94-.73,3-.73,2.86-3.74-.07-1.6.1-3.21.19-4.82,0-.8.26-1.6.23-2.39-.11-2.88-1.17-3.79-4-3.35-5.06.78-10.12,1.55-15.15,2.51a4.6,4.6,0,0,1-4.35-1.45,2.93,2.93,0,0,1-.58-2.42c.12-.48,1.29-1.06,1.91-1,1.44.2,2.41-.51,3.62-1a23.77,23.77,0,0,1,6.94-1.8c3.21-.24,6-1.61,8.94-2.57a2.42,2.42,0,0,0,1.66-2.86c-.31-3.49-.07-7-1.07-10.47-.49-1.71,0-3.79.38-5.61.26-1.12.65-2,0-3.12-.48-.75-.49-1.76.48-2a2.84,2.84,0,0,1,2.41.48,8.89,8.89,0,0,1,1.65,3.81c.68,4.77,1.13,9.58,1.66,14.37.1.88.15,1.76.23,2.74a8.15,8.15,0,0,0,1.61.24c2.9-.3,5.81-.58,8.69-1a25.69,25.69,0,0,0,3.44-1.06,16,16,0,0,1,2.6-.67c2.13-.27,3.26.25,3.82,1.59s-.27,3.86-1.73,4.46c-2.56,1.05-5,2.77-8,2.38a18.35,18.35,0,0,0-3.92,0c-3.57.33-5.43,2.32-5.49,5.9-.05,2.81,0,5.62,0,8.44a1.72,1.72,0,0,0,2.16,1.87c2.28-.3,4.52-.86,6.79-1.24a32,32,0,0,1,5.3-.7,2.65,2.65,0,0,1,2.79,2.55,2.71,2.71,0,0,1-2.12,2.93c-2.69.81-5.43,1.44-8.14,2.18-1.35.36-2.7.76-4,1.19-1.14.38-1.42,1.17-1.26,2.37.39,2.89.47,5.82.95,8.69.38,2.27,1.19,4.46,1.78,6.69.42,1.55.88,3.1,1.18,4.67.66,3.46,1.22,6.93,1.83,10.39a2.42,2.42,0,0,0,2.14,2.21c6.63,1,12.66,4,19,6,3.13,1,6,2.72,9.07,4.08,3.94,1.77,7.9,3.5,11.84,5.27a7.88,7.88,0,0,1,1.82,1.06,2.78,2.78,0,0,1,.8,3.53c-.6,1.35-1.7,1.54-3,1.27s-2.6-.35-3.87-.63a3.31,3.31,0,0,1-1.83-.87c-1.42-1.93-3.59-2.51-5.6-3.36-4-1.67-8-3.26-12-4.84-5.24-2.08-10.38-4.46-16.12-4.82-.4,0-.8,0-1.15,0-.2.21-.45.35-.45.5,0,4.92-2.26,9.31-3.18,14a34.74,34.74,0,0,1-2.51,7c-1.51,3.55-3.44,4.59-7.49,2.52-3.17-1.63-6.56-3.3-7.89-7.09-3.36-2.76-4.46-7.13-7.26-10.28a10.62,10.62,0,0,0-1.39-1.58,8.25,8.25,0,0,1-2.76-4.54c-.49-1.52-1.32-2.93-1.8-4.45a33.83,33.83,0,0,1-1.27-5.53,2.28,2.28,0,0,1,1.15-1.83c2.92-1.11,5.91-2,9.1-1.13a7.07,7.07,0,0,0,2.08.3,34.68,34.68,0,0,1,13,2.27,5.93,5.93,0,0,0,1.16.34c1.6.21,2.34-.4,2-2-.67-3.35-1.53-6.65-2.31-10-.53-2.24-1.1-4.46-1.57-6.71a34.53,34.53,0,0,1-.73-4.72A11.45,11.45,0,0,1,2916,65.43Zm-18.17,29.9c1.11,3.8,2.26,6.74,4.83,8.93a11,11,0,0,1,1.49,1.88c2.16,2.87,4.27,5.78,6.49,8.6a16.44,16.44,0,0,0,2.8,2.73c1.43,1.11,3.17.61,3.59-1,1.11-4.24,2.23-8.48,3.19-12.75.66-2.93-.88-5.1-3.69-6.26-4.73-2-9.72-2.42-14.72-2.78A17.93,17.93,0,0,0,2897.86,95.33Z"/><path d="M3032,132c1.13-2.19,1.63-4.6,3.33-6.64a11.85,11.85,0,0,0,2.06-5.6c1.14-7.09,1.65-14.22-.49-21.25-.39-1.29-.62-2.82-2.67-3.16a16.21,16.21,0,0,0-.53,1.88c-.08.49.06,1,0,1.51-.18,1.95-.56,3.93-2.49,4.86s-3.78.12-5.32-1.11a54.73,54.73,0,0,1-5.88-5.18c-3.23-3.43-6.16-7.15-9.4-10.57-2.25-2.39-2.15-4.94-.89-7.5a28.07,28.07,0,0,0,2.25-7.7c.51-3,2.35-5.69,3.67-8.49.33-.72,1.13-1.28,1.28-2,.58-2.75,2.77-4.21,4.7-5.69,1-.79,2.83-.64,4.3-.79a19.3,19.3,0,0,1,2.85.16,45.55,45.55,0,0,0-.61-6c-.55-2.33-1.78-2.84-4-2.08-5.35,1.78-10.68,3.62-16,5.39-4.68,1.54-9.37,3-14,4.54a4.55,4.55,0,0,1-1.47.31,6.89,6.89,0,0,0-5.34,2.21,4.84,4.84,0,0,1-5.92.5,2.93,2.93,0,0,1-1.4-1.71c-.2-1.05.43-2.33,1.5-2.25,3.07.21,4.07-2.43,6-3.8a15.69,15.69,0,0,1,4.93-2.1c4.54-1.25,9.18-2.22,13.42-4.42a8.45,8.45,0,0,1,1.41-.51l16.15-4.93c2.43-.74,3-1.6,2.93-4.17-.24-6.83-.62-13.66-.63-20.49a65.39,65.39,0,0,1,1.1-9.5,1.24,1.24,0,0,1,2.09-.78,3.92,3.92,0,0,1,1.47,1.82,26.14,26.14,0,0,1,1.15,5.57c.43,7.13.68,14.27,1,21.41.12,2.41,1.18,3.32,3.54,2.7,3.68-1,7.3-2.2,11-3.32,1.15-.35,2.29-.78,3.46-1.07a4,4,0,0,1,4.06,1.45,2.5,2.5,0,0,1-.83,4.2c-4.14,1.57-8.32,3-12.52,4.4a13.37,13.37,0,0,1-2.7.12c-2.77.29-3.9,1.59-3.67,4.38.47,5.5,1.21,11,1.5,16.49.25,4.69,1.6,9,2.84,13.5.93,3.35.81,7,1.35,10.45a36.8,36.8,0,0,0,1.63,6.72c1.06,3,1.28,6.06,1.71,9.15.8,5.7-.64,11.22-.92,16.82-.21,4.17-3.07,7.11-6,9.79a46.87,46.87,0,0,1-4.25,3.12Zm-8.52-70c-3.43,4.92-6,9.5-6.63,15a9.83,9.83,0,0,1-.9,3.49,3.45,3.45,0,0,0,.35,3.91c2.7,4.2,6.72,7.15,10.09,10.71.29.3,1,.17,1.43.22.29-2.2.46-4.18.84-6.12a55.15,55.15,0,0,1,1.49-5.82c2.17-7,1.3-13.51-3.69-19.14A19.73,19.73,0,0,0,3023.47,62Z"/><path d="M2256.15,60.58c-1.94.16-3.4.27-4.85.41a17.42,17.42,0,0,1-3.27.32c-2-.2-3-1.76-3-4.21,0-1.46,1.09-2.44,3-2.67a29.18,29.18,0,0,0,4.2-.47,62.35,62.35,0,0,0,7.94-2.58c.64-.26.9-1.61,1.18-2.5.76-2.39,1.38-4.81,2.16-7.19a3,3,0,0,1,1.24-1.64,2.57,2.57,0,0,0,1.51-3.24c-.48-1.43-2-1-3.17-.94-.9.07-1.62-.1-1.66-1.39,1.46-.84,2.93-1.83,4.52-2.58,2.4-1.13,4.17.1,4.24,2.74,0,1.48.37,3,.3,4.43a48.36,48.36,0,0,1-.73,5c-.23,1.45-.48,2.89-.78,4.67,3.47-.27,6.28-.9,9-2.78l-2.22-2.77c1-1.3,2-.77,2.91-.42,3.21,1.3,6.38,2.34,10,1.77,1.75-.28,3.14,1.61,2.92,3.4a4,4,0,0,1-3.69,3.78c-6.06.25-11.46,3-17.22,4.37a5.76,5.76,0,0,0-4.26,3.46,73.71,73.71,0,0,1-3.58,7c-1.23,2.18-2.58,4.3-3.92,6.42-.76,1.19-1.66,2.28-2.39,3.49-1.47,2.44-1.3,2.73,1.16,4.17,1.81,1,3.49,2.32,5.21,3.51.88.6,1.73,1.24,2.59,1.86,1.48-1.78,2.73-3.33,4-4.85,2.45-2.89,5.78-4.63,8.83-6.74a20.35,20.35,0,0,0,2.73-2.26c2-2,4.4-2.41,6.17-.84,1.46,1.28,1.42,2.54-.13,3.73-4.91,3.79-9.08,8.37-13.45,12.73-1.15,1.15-1.09,1.78.18,2.7s2.38,1.49,3.56,2.25c2.35,1.52,4.76,3,7,4.61a3.11,3.11,0,0,1,.91,4.51,2.12,2.12,0,0,1-2.86,1c-1.44-.69-2.83-1.48-4.22-2.29-2.77-1.61-5.49-3.31-8.3-4.86-1.73-1-2.39-.7-3.33,1.06-2.21,4.15-4.58,8.23-6.48,12.53-2,4.59-1.33,9.5-.57,14.29a2.59,2.59,0,0,0,2.83,2.18c4,.09,8,.28,12,.4a4.24,4.24,0,0,0,1.77-.31c6.1-2.7,12.81-2.27,19.14-3.79,2.91-.7,5.87-1.24,8.78-2a9.51,9.51,0,0,0,2.38-1.2,2.88,2.88,0,0,1,4.18.78c1.19,1.67,1.15,3.59-.45,4.52-2.12,1.23-4.05,2.94-6.79,3a26.5,26.5,0,0,0-4.12.92c-2.67.47-5.34,1-8,1.23a29.55,29.55,0,0,0-8,1.36,33.66,33.66,0,0,1-5.87,1.26,58.73,58.73,0,0,1-17.41.33,6.36,6.36,0,0,1-5.87-4.86c-.95-3.45-2.35-6.89-2-10.6.48-5.3.86-10.6,4-15.25,1.62-2.4,2.87-5,4.26-7.61,1.14-2.11,1.11-3.23-1-4.23-4-1.87-7-5.43-11.31-6.78a3.34,3.34,0,0,1-1.24-5.65c3-2.58,4.51-6.14,6.61-9.29A17.39,17.39,0,0,0,2256.15,60.58Z"/><path d="M2661.35,39.27a6.54,6.54,0,0,0-5.11-1c-3.86.65-7.78,1-11.67,1.46-2.39.29-4.78.58-7.17.85-3.19.36-6.37.75-9.57,1a24.3,24.3,0,0,1-3.91,0,2.54,2.54,0,0,1-2.44-2.26c-.28-1.25.47-1.68,1.21-2.44,1.86-1.93,4.12-2.16,6.58-2.35A81.74,81.74,0,0,0,2643,32.93a69.83,69.83,0,0,1,10.73-1.38c5.51-.45,11-.74,16.55-1.08,1.68-.11,2.53.91,3.15,2.31s1,2.47-.36,3.51c-4.14,3.07-6.75,7.34-9.39,11.64-2.4,3.91-5.66,7.27-7.28,11.67-.16.44-.64.76-1,1.15a15.79,15.79,0,0,0-3.49,6.59c-.45,2.15-1.33,4.22-1.72,6.37a34.47,34.47,0,0,0-.53,6.57c.18,9.53,4.89,17.23,10.26,24.62,1.11,1.52,2.68,2.7,4,4.12,2.92,3.29,5.79,6.63,8.68,10a4.19,4.19,0,0,1,.39.45c.57.9,1.69,1.83.7,2.9s-1.81,0-2.67-.49c-4.6-2.57-8.23-6.42-12.44-9.46-4.79-3.46-7.35-8.45-10.19-13.2-1.91-3.19-2.51-7.12-4.06-10.55s-1.7-7.25-1.46-10.95a89.2,89.2,0,0,1,1.42-11,20.12,20.12,0,0,1,2.1-4.94c2.24-4.5,4.47-9,6.86-13.43A25.72,25.72,0,0,1,2661.35,39.27Z"/><path d="M2835.93,68.1c1.92,5.4,3.69,10.59,7.85,14.53a5.38,5.38,0,0,1,2,4.51,2.39,2.39,0,0,1-1.5,2.35c-3,1.35-6,2.79-9,4.22a28,28,0,0,1-3.19,1.61,2.64,2.64,0,0,1-2.17-.34c-.81-.7-.1-1.48.49-2,1.86-1.7,3.77-3.33,5.62-5,2.06-1.88,1.9-2.18.61-4.53-1.73-3.15-3.23-6.43-4.68-9.73-1.6-3.66-2.78-4.25-6.43-2.82-5.13,2-10.23,4.09-15.4,6-3.2,1.19-6.48,2.16-9.75,3.14-3,.91-4.25.49-5.6-1.65,2-2,8.09-5.93,10.53-6.62a126.33,126.33,0,0,0,18-6.84,7.59,7.59,0,0,0,1.19-.85c.22-2-.92-3.33-1.86-4.71a35.13,35.13,0,0,0-2.85-3.5,3.34,3.34,0,0,0-3.52-1.18l-18.06,4.73c-2.18.57-4.35,1.88-6.55.18,0-1.14,0-2.22,0-3.3a2.33,2.33,0,0,1,1.81-2.18c3.11-1.12,6.2-2.37,9.39-3.2,3.57-.93,7.25-1.43,10.86-2.19a16,16,0,0,0,2.78-1.2c-2.49-1.67-4.21-3.35-4.46-5.91-.28-3,0-6.12-2.87-8.23-.3-.22-.25-.91-.35-1.37,2.68-1.19,3.78-.92,4.53,1.39a16.91,16.91,0,0,0,3.33,6,37.61,37.61,0,0,1,3.08,4.79c1.7,2.72,2.27,2.81,5.43,2.46,4.88-.53,9.18-2.93,13.86-4.05a18.1,18.1,0,0,1,2.06-.48,2.47,2.47,0,0,1,2.8,1.76,2.48,2.48,0,0,1-.71,3.24,5.17,5.17,0,0,1-1.81,1c-4.6,1-8.67,3.86-13.55,4-1.6.06-2.11,1.23-1.35,2.51,1.1,1.87,2.34,3.67,3.37,5.59a3.09,3.09,0,0,0,3.46,1.75c2.6-.3,5.21-.56,7.81-.76a14.84,14.84,0,0,1,3,.09c1.59.19,2.14,1.25,2.15,2.76a2.35,2.35,0,0,1-2,2.58c-2,.39-4,.66-5.94,1Zm-8.69-2.54.53-.35c-.36-.4-.73-.8-1.09-1.21l-.37.32Z"/><path d="M2501.7,131.24c.78-.38,1.27-.64,1.78-.87a9.52,9.52,0,0,0,4.45-3.45,14.87,14.87,0,0,1,3.3-3.51c1.67-1.31,2.33-3.18,3.37-4.87,2-3.28,2.38-7.19,4.23-10.52a35.09,35.09,0,0,0,4-15,28.7,28.7,0,0,0-.21-5.71,4.7,4.7,0,0,0-3-3.87,18.34,18.34,0,0,0-11.77-1.09c-5.14,1.29-9.71,3.77-14.34,6.16a17.24,17.24,0,0,0-2.33,1.91c-2.22,1.71-4,1.53-5.69-.73a12.3,12.3,0,0,1-1.59-3.23,71.93,71.93,0,0,1-2.6-11.08c-1.17-6.61-.08-13,.81-19.46.22-1.59.69-3.15,1-4.73a35.58,35.58,0,0,0,.58-3.84c.14-2,1.21-2.86,3.75-2.77,1.9.07,2.67.91,2.64,2.86,0,.2,0,.4-.05.6-.9,5.56-2,11.09-2.64,16.67a51.18,51.18,0,0,0,.19,9,33.5,33.5,0,0,0,.86,5.35,31.23,31.23,0,0,0,1.36,3.73,46.32,46.32,0,0,1,5-2.66c4.79-1.79,9.61-3.54,14.49-5.07a10.87,10.87,0,0,1,7.14.12c2,.76,4,1.36,5.93,2.24,5.31,2.42,6.95,7.14,7.36,12.45a30.11,30.11,0,0,1-.26,7.53,62.53,62.53,0,0,1-2.51,8.94c-.76,2.27-1.85,4.42-2.78,6.64-2,4.83-4.15,9.71-7.55,13.66-2.07,2.4-5.21,4-8.11,5.51C2506.47,133.19,2504.09,132.75,2501.7,131.24Z"/><path d="M2089.45,117.1c-.21-1.41.84-2,1.75-2.53a4.83,4.83,0,0,0,2.5-3.78c.72-4.36,2.11-8.61,2.7-13a67.1,67.1,0,0,0,.13-10.52c-.07-2.31-.55-4.6-.63-6.91-.2-5.33-3.76-8.13-8.91-8-1.4,0-2.81.15-4.21.26s-2.23.9-2.4,2.51c-.66,6.19-1.27,12.4-2.27,18.54a33.43,33.43,0,0,1-2.81,8.54c-1.5,3.23-4.19,3.61-6.85,1.28-2.93-2.59-5.8-5.25-8.73-7.84a25.44,25.44,0,0,0-2.67-1.92,3.8,3.8,0,0,1-1.53-5.17c1.18-2.84,3.22-5.07,5.07-7.45,1.1-1.42,2-3,3-4.49a22.51,22.51,0,0,1,2.61-3.28,29.7,29.7,0,0,1,15.73-7.67c.89-.16,1.8-.22,2.68-.41,4.58-1,8.53.71,12.22,3,2.42,1.52,3.28,4.28,4.2,6.8a29.36,29.36,0,0,1,1,5.31,81.26,81.26,0,0,1,1.16,8,36.25,36.25,0,0,1-1.83,13,56.84,56.84,0,0,1-4.35,10.84c-1.53,2.83-3.94,4.16-6.76,5.09C2090.09,117.53,2089.78,117.25,2089.45,117.1Zm-18.33-20.58c1-2,.87-4.08,1.1-6.15.17-1.58.36-3.17.62-4.74.36-2.27.82-4.53,1.19-6.8.15-.94.1-1.84-.84-2-2.84,2.73-5.63,5.29-8.25,8a7.2,7.2,0,0,0-1.57,3.19,3.08,3.08,0,0,0,.42,2.5c2,2,4.86,3.18,6.4,5.79C2070.29,96.45,2070.73,96.43,2071.12,96.52Z"/><path d="M2602.94,131.64c-1.24-.19-1.91-.24-2.55-.4-6.54-1.62-12.35-4.82-17.85-8.56-4.15-2.82-8.13-5.86-12.13-8.89a4.4,4.4,0,0,1-1.51-2.15c-1-3.67-1.92-7.38-2.79-11.08a14.54,14.54,0,0,1,.06-2.08,27.39,27.39,0,0,0-.43-2.86c-.09-.48-.54-1.07-.38-1.4.95-2-.25-3.69-.7-5.5a12.34,12.34,0,0,1-.42-3.86c.11-1.41.58-2.78-.76-3.89a.92.92,0,0,1-.2-.83c1.4-3.73-.56-7.34-.23-11.2a2,2,0,0,1,.51-.43c2-.87,2.47-2.11.94-3.5a3.48,3.48,0,0,1-1.13-4,4.47,4.47,0,0,0,.2-1.49c-.46-5.2-1-10.39-1.41-15.58-.15-1.67-.27-3.35-.42-5.27l-3.9-1.77a53.85,53.85,0,0,1,3.9-3.93c1.08-.87,3.19-.07,4.09,1.49a10.88,10.88,0,0,1,1.4,3.32c.76,3.93,1.29,7.89,2,11.83,1.07,5.8.49,11.6.24,17.41-.08,2,.51,4,.63,6,.14,2.51,0,5,.19,7.55s.61,5.17,1,7.74c.83,5.06,1.94,10.08,2.55,15.16.67,5.61,4.24,8.8,8.54,11.65,1.91,1.26,3.58,2.86,5.43,4.2,2.93,2.11,5.9,4.16,8.89,6.18A17,17,0,0,1,2602.94,131.64Z"/><path d="M2810.7,111c2.78-1.31,4.39-.84,5.64,1.46a33,33,0,0,0,1.95,3.36A5.71,5.71,0,0,0,2822,118c2.45.52,4.82,1.4,7.23,2.06a25.8,25.8,0,0,0,11.95.14c2.85-.54,5.79-.66,8.69-.92,2.4-.22,4.81-.35,7.21-.56,1.8-.17,2.57.29,2.91,1.79a2.22,2.22,0,0,1-1.69,2.79c-8.05,2.65-16.19,4.55-24.82,3.87-5.42-.42-10.42-2.16-15.38-4.07a6.84,6.84,0,0,1-3.27-2.95C2813.28,117.21,2812.06,114,2810.7,111Z"/><path d="M3079.75,111.86a3.89,3.89,0,0,0,3.64-2.78c1.66-4,7.44-6.75,11.79-6.21a6.9,6.9,0,0,1,6,4.74c.42,1.13.78,2.28,1.28,3.37,1.74,3.79,1.07,7.46-.52,11.08a3.81,3.81,0,0,1-4,2.61c-2.79-.17-5.66.38-8.33-.86a10.1,10.1,0,0,1-2.09-1.15c-2.47-2-2.63-4-.21-6,1.52-1.22,2.72-3,4.94-3.26.45,0,.83-.73,1.25-1.12-2.27-2.48-3.62-2.67-6-.9-.8.61-1.5,1.36-2.33,1.91C3083.4,114.56,3081.55,114.1,3079.75,111.86Zm15.75,2.23-3.3,4.94c1.28-.14,2.14-.17,3-.33,1.78-.33,2.54-1.14,2.56-2.72C3097.76,114.25,3096.38,114.35,3095.5,114.09Z"/><path d="M2727.65,88.41c2.3,1.93,2.82,3.13,1.49,5.39-1.91,3.25-2.87,6.81-4.17,10.27a2,2,0,0,1-2.26,1.57c-1.71-.18-3.32-.45-4.54-2-3.17-3.87-6.49-7.61-9.66-11.48-2.21-2.7-4.26-5.53-6.4-8.3-.3-.39-.62-.91-1-1-2.42-.78-3.29-3.13-5-4.62,2.85-2.53,4.48-2.66,7.54-.95a12.68,12.68,0,0,1,4.83,4.76,77.82,77.82,0,0,0,5.52,7.11c1.47,1.89,2.9,3.83,4.34,5.74a11.72,11.72,0,0,0,1.28,1.67,1.4,1.4,0,0,0,2.32-.22,3.35,3.35,0,0,0,.73-1.31C2723.05,91.92,2725.56,90.46,2727.65,88.41Z"/><path d="M2503.46,42.14c.24-.83.21-1.58.56-1.86,2.91-2.29,3.71-5.93,5.7-8.8,1.33-1.93.8-3.4-1.34-4.35-4.75-2.1-9.11-5-14.2-6.47a2.91,2.91,0,0,0-3.4,1.06c-.87-1.52-1.68-2.86-2.4-4.24a1.84,1.84,0,0,1,.67-2.62,4.91,4.91,0,0,1,4.26-.94,37.73,37.73,0,0,1,9.21,3.57c3.45,2,7.12,3.67,10.68,5.51a16.79,16.79,0,0,1,2.8,1.74c1.87,1.52,2,2.33,1.11,4.65-.59,1.49-1.3,2.93-1.91,4.41C2513.14,38.85,2509.29,41.45,2503.46,42.14Z"/><path d="M2348.86,127l2.47-.63a2.66,2.66,0,0,0,.47-.71c.68-2.41,1.31-4.84,2-7.25.79-2.79,1.45-5.62,2.46-8.33a19.42,19.42,0,0,0,1-9.18c-.22-2,.38-2.53,2.39-2.29.49.06,1,.2,1.47.3,2.26.47,3,1.19,2.81,3.46-.31,4.59-.45,9.16-2.36,13.54-1.71,3.93-2.86,8.11-4.18,12.21a4.76,4.76,0,0,1-3.08,3.05C2350.91,132.5,2349,131.17,2348.86,127Z"/><path d="M2744.13,67.55c2.9-2.21,5.08-4.11,8.3-3.26a4.94,4.94,0,0,1,2.33,1.28,77.48,77.48,0,0,1,5.77,6.92c2.55,3.59,5,7.26,7.2,11.06a19,19,0,0,1,1.81,5.69,4.78,4.78,0,0,1-1.66,4.63c-1.05.94-2.75.49-2.78-.85-.13-5.34-3.62-8.91-6.5-12.79-2-2.65-4.07-5.21-6.14-7.78-1.46-1.8-2.91-3.58-5.57-3.65C2746.19,68.79,2745.51,68.2,2744.13,67.55Z"/><path d="M2401.5,127.2a2.6,2.6,0,0,1-3.77,2.52,6.47,6.47,0,0,1-1.85-1.5c-2.21-2.32-4.41-4.65-6.55-7s-4.56-5.07-6.7-7.71a6.52,6.52,0,0,1-1.19-3,2.39,2.39,0,0,0-2.28-2.33c-.2,0-.4,0-.6-.06-1.12-.12-2.37-.12-2.23-1.75.08-1,1.92-2.42,3-2,2.17.82,4.54.94,6.29,3.09a75.83,75.83,0,0,0,10.26,11c2.1,1.73,3.48,4.36,5.06,6.66A6.6,6.6,0,0,1,2401.5,127.2Z"/><path d="M2449.74,129.25c-2.25,1.34-3.73,1-5.13-.35a53.46,53.46,0,0,1-8.85-11c-1.18-2-2-4.38-4.87-4.92-1.17-.22-1.5-1.73-1.09-2.8a3.1,3.1,0,0,1,1.91-1.56,3.54,3.54,0,0,1,3.59,1.05c1.68,1.73,3.49,3.35,5.06,5.18,2.94,3.42,5.87,6.86,8.56,10.48C2449.64,126.28,2449.49,127.9,2449.74,129.25Z"/><path d="M2404.57,109.75a6.16,6.16,0,0,1,6.46,2.18c2.76,3.3,5.21,6.85,7.71,10.36a3.82,3.82,0,0,1,.65,2.29,4.1,4.1,0,0,1-.95,2.61,2.49,2.49,0,0,1-3.32-.37,23.55,23.55,0,0,1-2.13-2.53,78.31,78.31,0,0,1-5.62-7.4C2406.15,114.88,2405.6,112.47,2404.57,109.75Z"/><path d="M2491.37,25.71l-.66.88a2.51,2.51,0,0,1-.57-.71c0-.11.31-.47.52-.5S2491.11,25.58,2491.37,25.71Z"/><path class="cls-1" d="M2827.24,65.56l-.93-1.24.37-.32c.36.41.73.81,1.09,1.21Z"/><path d="M1183,97c-2.38,4-6,5.36-9.77,6.66a24.43,24.43,0,0,0-5.63,2.85c-3.7,2.5-8,4.16-10.57,8.25-.77,1.25-1.51,2-.11,3.3.44.4.36,1.35.67,2.69a16.83,16.83,0,0,1-3-1.07,3.54,3.54,0,0,0-4.22.28c-1.09.73-2,1.65-3.16,2.33a8.55,8.55,0,0,1-2.74,1.09,2.55,2.55,0,0,1-3.23-2.57,35,35,0,0,1,.35-5.69,3.86,3.86,0,0,0-1.49-4c-2-1.63-4-3.37-5.95-5.12-.81-.74-1.44-1.66-2.2-2.46-1.56-1.65-3.15-3.28-4.73-4.92l-.75.26a26.39,26.39,0,0,0-.12,3.66c.43,4.59.89,9.19,1.49,13.76.4,3.09,1.07,6.14,1.6,9.2a28.86,28.86,0,0,1-.54,11.63,4.36,4.36,0,0,1-3.56,3.29,2.54,2.54,0,0,1-2.12-.44,2.29,2.29,0,0,1-.45-2.12c3.22-5,1.15-10.13.42-15.22-.42-3-.85-6-1.25-9-.1-.69-.06-1.41-.17-2.1-.48-3-1-6.07-1.62-9.81a10.23,10.23,0,0,0-1.61,2.14c-2.29,6.79-6.41,12.55-10.83,18-3.9,4.78-8.49,9.08-14.24,11.77a9.4,9.4,0,0,1-2.51.42,4.54,4.54,0,0,1,1.48-4.11c1.29-1.4,2.8-2.61,4-4.08,3.26-4,6.5-7.92,9.57-12,3.82-5.1,6-11.09,8.58-16.82,1.08-2.36,2.51-4.56,3.73-6.85.87-1.63.88-2.12.32-4.56a39.63,39.63,0,0,0-4,1c-2.36.85-4.68,1.82-7,2.8a8.94,8.94,0,0,0-2.63,1.44c-2.19,2-4.84,2.72-7.65,3.26-2.26.44-4.43,1.36-6.66,2s-3,.32-3.88-1.56a3.41,3.41,0,0,1,1.17-4.27,8.48,8.48,0,0,1,1.88-.94c7.33-2.91,14.68-5.79,22-8.71,1.77-.71,3.46-1.59,5.21-2.35a2.35,2.35,0,0,0,1.56-2.6c-.19-3-.15-6-1-8.94-.63-2.1-.12-4.54-.12-7.49-1.51-2.2-1.17-4,1.59-5.46a3.24,3.24,0,0,1,3.89.55,2.32,2.32,0,0,1,0,3.28c-1.48,1.76-1.34,3.36.19,5.08a4.68,4.68,0,0,1,1,3.92,21.27,21.27,0,0,0,.3,6c.29,1.81,1.55,2.21,3.11,1.23a1.48,1.48,0,0,0,.47-.38c1.57-2.46,4-2.62,6.6-2.66,1.71,0,3.41-.23,5.12-.24,3,0,4.24,1.52,3.66,4.14a2.92,2.92,0,0,1-2.77,2.33c-2.66.45-5.31,1-8,1.6a22.29,22.29,0,0,0-2.88.89c-5.14,1.88-6.45,6.47-2.75,10.62,4.47,5,9.23,9.71,13.9,14.51a14.35,14.35,0,0,0,2.41,1.59A12,12,0,0,0,1144,104c.15-4.17,1.75-8,2.6-12a5.94,5.94,0,0,1,.44-1.45c2.34-4.41,2.62-9.41,4-14.1s2.35-9.71,4.53-14.28c1.2-2.51,1.7-5.34,2.65-8a35.74,35.74,0,0,1,2.15-4.1c-.5-1.45.26-3,2.14-4.1a2.58,2.58,0,0,1,3.32.17c1.09.88,1.89,1.87,1.38,3.36-.32.94-.87,1.82-1.19,2.77q-4.66,13.66-9.25,27.37a26.79,26.79,0,0,0-.61,3.26,101.54,101.54,0,0,1-4.48,15,34.5,34.5,0,0,0-1,5.89c-.35,2.07-.75,4.14-1,6.21a2.28,2.28,0,0,0,.39,1.53c.12.17.9-.07,1.32-.25a3.25,3.25,0,0,0,.94-.76,51.08,51.08,0,0,1,9.56-7.53,70.5,70.5,0,0,1,7.17-3.72c2.25-1.09,4.55-2.06,6.82-3.08a1.67,1.67,0,0,0,.53-.28c1.57-1.85,1.29-4.17,1.19-6.26-.09-1.59-1.7-2.37-3.34-2.54-1.27-.13-2.73.17-3.22-1.55,2.17-2.82,5.59-3.34,8.34-.93a50,50,0,0,1,7.15,7.32,167.13,167.13,0,0,0,11.42,13.21c1.7,1.81,3.81,3.22,5.51,5,2.33,2.48,4.48,5.13,6.65,7.76a2.44,2.44,0,0,1-.12,3.73c-.92.94-2.15,1-3.49-.23-2.07-1.9-3.94-4-5.92-6-.63-.64-1.35-1.18-2-1.77a68.24,68.24,0,0,1-10.68-10.94C1186.47,100.78,1184.87,99.12,1183,97Z"/><path d="M334.42,162.56c2.44-3.22,5.19-6.09,7-9.47a43.4,43.4,0,0,0,3.81-10.75c1.38-5.93,2.32-12,3.37-18,.3-1.67.33-3.39.47-5.09.39-4.59.89-9.18,1.13-13.78.45-8.62.86-17.24,1.05-25.87.08-3.38-.52-6.77-.73-10.16-.1-1.5.12-3,0-4.51-.55-4.68-1.22-9.36-1.84-14a11,11,0,0,1-.25-1.79c.13-2.81-.48-5.19-3.85-6.25,2.26-1.86,3.88-3.55,6.93-3.56,3.45,0,7-.1,10.38-1.51a12.77,12.77,0,0,1,4.76-.63,37.86,37.86,0,0,0,11.9-1.73A20.45,20.45,0,0,1,385,34.5c2.78,0,3.47,1.19,4,3.87,1.49,7.76,1,15.63,1.67,23.43.48,5.2.08,10.51.81,15.66.88,6.27,1.2,12.56,1.6,18.85.51,7.93.91,15.88.91,23.82,0,9.36.35,18.7.83,28.05.28,5.59.82,11.22-.14,16.87a6,6,0,0,1-5.95,5.17c-6.12.41-10.68-2.52-15-6.34-1.93-1.7-4.1-3.14-6.16-4.69l-1.11-.79c.4-1.32,1.34-1.14,2-.9,2.83,1,5.6,2.15,8.42,3.16,3.21,1.16,6.42,2.31,9.68,3.3,1.39.42,2.09-.26,2.21-2.05.15-2.21.17-4.43.11-6.65-.16-6.32-.42-12.64-.59-19-.08-2.79,0-5.58-.05-8.37a17.69,17.69,0,0,0-.58-4.17,3.13,3.13,0,0,0-2.51-2.31,17.5,17.5,0,0,0-10.35,1.12c-3.09,1.21-6.14,2.56-9.32,3.48s-6.21.93-8.55-2c-.17-.21-.52-.28-.88-.47a5.78,5.78,0,0,0-2.23,4.07c-.8,4-1.54,8.06-2.44,12.07a54.91,54.91,0,0,1-6.81,16.3c-2.15,3.56-5.64,5.32-9.06,7.22a1,1,0,0,1-.81-.18A1.15,1.15,0,0,1,334.42,162.56Zm48.73-120.2c-2.79-1.41-2.78-1.38-5.3-.85-3.35.69-6.7,1.46-10.08,1.94-3.58.51-7.2.66-10.79,1.06-2.38.26-3.21,1.24-2.91,3.59s1,4.72,1.3,7.1a208.58,208.58,0,0,1,1.77,25c0,6,.79,12-.2,18a1.55,1.55,0,0,0,1.34,2,7.73,7.73,0,0,0,3.11-.61c.92-.32,1.71-1.25,2.61-1.35,4.59-.51,9.13-1.47,13.82-1.14,2.86.21,5.77-.27,9.09-.47-.26-4.6-.39-8.77-.9-12.94a85,85,0,0,1-1.09-9C384.75,64,384.74,53.2,383.15,42.36Zm4.47,73.35c0-3.54.09-6.65,0-9.75-.11-2.81-1.07-3.51-3.83-3.16a10,10,0,0,1-2.09.21,38.31,38.31,0,0,0-17,1.71,5,5,0,0,1-1.48.26c-1.51.07-3,.1-4.53.14a2.05,2.05,0,0,0-2.24,2c-.4,3.8-.77,7.6-1.14,11.4a1.69,1.69,0,0,0,1.65,2.08c2.68.25,5.32.76,8-.44a79.46,79.46,0,0,1,8.79-3.2c3.56-1.1,7.17-2,11-1.25A15.31,15.31,0,0,0,387.62,115.71Z"/><path d="M895.05,116.32c-.08.92-.16,1.68-.22,2.45-.33,4.09-.64,8.18-1,12.27a4.2,4.2,0,0,1-.42,1.13c-1.66,4.08-3.3,8.18-5,12.25a14.6,14.6,0,0,1-1.38,2.3c-.87,1.3-2,1.45-3.42.89a21.24,21.24,0,0,1-9.83-7.59,36.62,36.62,0,0,0-2.77-3.09c-.6-.67-1.23-1.33-1.8-2-1.38-1.73-2.81-3.42-4.06-5.24A20.48,20.48,0,0,1,862.5,125c-1.23-3.49-2.24-7.07-3.21-10.65-1.23-4.51,2.12-8.22,6.79-7.66.2,0,.41.15.59.12,4.64-.75,9.17-.8,13.26,2a1.28,1.28,0,0,0,1.15.08c2-1.44,4.07-.6,6.11-.25,2.5.42,3,.09,2.77-2.35-.26-3-.75-6-1-9s-.18-5.82-.23-8.74c0-2-.86-2.52-2.6-1.53-1,.54-1.82,1.25-2.74,1.86-2.33,1.56-4.72,3-7,4.69-2.58,1.87-5.13,2.12-7.89.17a9.64,9.64,0,0,1,4.07-4.35c2-1.17,3.55-3,5.42-4.3,2.34-1.7,4.77-3.29,7.23-4.81,1-.61,2-1.14,2-2.41.05-2.89,0-5.78,0-8.92a12.6,12.6,0,0,0-2.34.19c-3.53,1.13-6.87,2.84-10.65,3.2-1.75.16-3.45.78-5.2,1a3,3,0,0,1-3.35-2.32,1.85,1.85,0,0,1,1.3-2.58c5.58-2,11.13-4.12,16.71-6.13,2.63-.95,3.08-1.62,2.84-4.44a27.18,27.18,0,0,1,0-4.51,78.4,78.4,0,0,0-.47-16.77,41.74,41.74,0,0,1-.16-7.5,20.77,20.77,0,0,0-1-7.27c-1.76,1.1-1.28,2.67-1.66,3.91s.74,2.68-.83,3.56c-1.46-.16-1.24-1.42-1.52-2.3-.88-2.72,0-5.2,1.37-7.47A4,4,0,0,1,887,17.69a5,5,0,0,1,3.52,4.76c.15,4.68,1.25,9.26,1.56,13.92s.43,9.24.54,13.86c.06,2.51-.06,5-.12,7.53,0,1.23.51,1.92,1.78,1.91.6,0,1.21-.06,1.81-.07,1.2,0,2.48-.25,3.12,1.19a3.52,3.52,0,0,1-.33,4c-1,1.14-1.82,2.63-3.07,3.26-2.42,1.23-2.48,3.2-2.41,5.34.06,1.83.7,2.4,2.5,1.91,2.32-.64,4.58-1.54,6.86-2.33a15.91,15.91,0,0,1,2.26-.78c2-.38,2.83.15,3.48,1.94s.2,2.69-1.52,3.7c-3.34,2-7.12,2.74-10.75,3.91-.46.15-.94.25-1.64.44a23.45,23.45,0,0,0-.14,3c.42,6.23.91,12.44,1.33,18.67a32.06,32.06,0,0,1-.08,3.92,2.45,2.45,0,0,0,1.86,2.74,13.34,13.34,0,0,0,2.57.85c5.39.52,10.34,2.45,15.29,4.48,2.51,1,5.17,1.67,7.71,2.62,4.24,1.59,8.44,3.26,12.65,4.93,1.41.57,2.37,2.18,2,3.35-.46,1.42-1.66,1.59-2.94,1.57-3.23-.06-6-1.51-8.81-2.87a33.28,33.28,0,0,0-3.87-1.56c-2.85-1-5.71-1.91-8.59-2.76-4.33-1.27-8.68-2.5-13.05-3.66C898.81,117,897,116.71,895.05,116.32Zm-30.22-4.85a24.52,24.52,0,0,0,.19,3.33A30.31,30.31,0,0,0,870.53,127a66.19,66.19,0,0,0,10.68,11.81c1.8,1.5,2.24,1.33,2.95-1a37.18,37.18,0,0,1,1.52-3.91,32.12,32.12,0,0,0,3.11-12.47c0-1.4.15-2.8.29-4.2.2-1.92.09-2.25-1.88-2.74a45.86,45.86,0,0,0-4.72-.7Z"/><path d="M567.13,141.36a21.08,21.08,0,0,0,3.19-11.51c0-2.71.32-5.41.46-8.12a5,5,0,0,0-.17-2.09,19.47,19.47,0,0,1-1.41-7.6,3.83,3.83,0,0,0-4.89-3.78,42.4,42.4,0,0,0-9.37,3.17,120.86,120.86,0,0,0-12.47,7.79,22.08,22.08,0,0,0-4.69,4.62c-4,5.13-7.83,10.41-11.81,15.57a6.9,6.9,0,0,0-1.52,3.5,5.53,5.53,0,0,1-1.12,2.72c-2.07,2.45-4.29,4.78-6.44,7.16a2.92,2.92,0,0,1-3.22,1.06c-2.66-.81-3.59-3-2.11-5.41,1.66-2.73,3.49-5.36,5.23-8.05a49,49,0,0,1,3.77-5.78c2.71-3.11,3.93-6.87,5.54-10.54,3.38-7.72,7.17-15.26,10.85-22.85a115.24,115.24,0,0,1,5.91-11.49c3.29-5.19,4.92-11.18,8.21-16.35.7-1.1,1.46-2.16,2.11-3.29a10.45,10.45,0,0,0,.61-1.94,10.8,10.8,0,0,0-2.16,0c-3.91.93-7.8,2-11.72,2.85-1.46.33-3,.3-4.49.52-1.24.19-2.2,0-2.62-1.34-.6-1.89-.35-3.3,1.08-3.93a32.87,32.87,0,0,1,4.86-1.46c1.33-.36,2.67-.66,4-1,2.94-.63,5.88-1.28,8.84-1.83,2.77-.52,5.58-.81,8.32-1.39,1.51-.33,2.8-.45,3.79.92.67.94.52,3.52-.29,4.6-4.07,5.4-6.58,11.66-9.81,17.53-1.78,3.24-2.82,6.9-5.53,9.62a5.43,5.43,0,0,0-1.19,2.09c-2,5.85-5.21,11.06-8.17,16.42a16,16,0,0,0-.94,3.26c.77-.19,1.11-.18,1.31-.34a69.08,69.08,0,0,1,16-9.54,65.88,65.88,0,0,1,11.78-3.63c2.83-.67,5.13.51,6.36,3.33a4,4,0,0,0,.93,1.54c2.39,1.86,2.55,4.39,2.35,7.09a14.52,14.52,0,0,0,.1,3c.85,6-.79,12-.46,18.06.06,1.23-.71,2.48-1,3.75a23.42,23.42,0,0,0-.75,5.27c.08,2.05-.35,3.48-2.28,4.45a4.22,4.22,0,0,0-1.64,2c-1.92,4.09-3.73,8.23-5.64,12.32a15,15,0,0,1-1.88,3.06c-3.07,3.76-6.36,4.39-10.28,1.56-3-2.18-5.42-4.95-6.13-8.91a58.29,58.29,0,0,0-2-6.62c-1.1-3.62-.57-7.17.52-10.67.68-2.19,1.31-4.41,3.37-5.89a3.71,3.71,0,0,1,3-.91c3,.6,6,1,8.85,1.87,1.33.4,2.42,1.66,3.56,2.6S565.94,140.27,567.13,141.36ZM549,145.53c.26,2.23.47,4.43.81,6.61a4.74,4.74,0,0,0,.82,1.87c1.43,2.05,3,4,4.39,6.07s2.3,1.94,3.46-.1q2.91-5.11,5.77-10.24a19,19,0,0,0,.95-2.22c1-2.52,1-3-1.41-4-2.79-1.12-5.33-3.44-8.75-2.41-.32.09-.75-.2-1.13-.32-3.14-.93-4-.46-4.66,2.65A18.26,18.26,0,0,0,549,145.53Zm-9.75-77.88a3.61,3.61,0,0,0-.55.72c0,.1.21.43.24.41.23-.07.53-.17.6-.35S539.38,68,539.23,67.65Z"/><path d="M760.43,62l-2.18,1.79a2.82,2.82,0,0,1-.17-4c1-1.26,2.38-1.47,4.08-1a28.74,28.74,0,0,0,4.06.73c1.62.22,3.26.35,5.45.57l5.3-2.61c4.38-2.2,9.19-2.88,13.91-3.84,2.55-.52,5.2-.51,7.78-.91,6-.93,11.91-2,17.87-3a10.74,10.74,0,0,1,2.4-.17,3,3,0,0,1,3.21,2.95,24.49,24.49,0,0,1-.08,3.92,8,8,0,0,0-.09,2.38c1.11,4,.81,8.22,1.69,12.17,1.61,7.14.94,14.4,1.88,21.57.79,6,.2,12.25.19,18.38,0,7.74,0,15.49-.11,23.23a75.71,75.71,0,0,1-.67,9c-.33,2.47-1.55,3.19-4,2.87-2.31-.31-2.31-.31-3.68-1.83,2.86-1.48,2.7-4.08,2.52-6.74-.24-3.41-.35-6.82-.55-10.23a14,14,0,0,0-.51-2L808.11,128a12.25,12.25,0,0,1-2,.55c-7,.61-13.66,2.48-20.36,4.31a11.73,11.73,0,0,1-3.22.71,3,3,0,0,1-2.2-1.19,2.89,2.89,0,0,1,.27-2.46,5.38,5.38,0,0,1,2.28-1.84A73.66,73.66,0,0,1,799,123.4a181.54,181.54,0,0,1,18.54-2.3c1.18-.1,1.9-.46,1.91-1.78,0-6.82.13-13.64.18-20.46a6.42,6.42,0,0,0-.34-1.35c-2.33.44-4.58.85-6.82,1.31-2.06.43-4.11.87-6.15,1.36-4.5,1.09-9,2.2-13.47,3.33-1.36.35-2.68.89-4.06,1.13a5.72,5.72,0,0,1-2.94-.14c-1.2-.48-2.25-1.17-3.65-.78-.29.08-1-.42-1.08-.76a1.46,1.46,0,0,1,.54-1.24,3.27,3.27,0,0,1,1.91-.73,5.25,5.25,0,0,0,4.11-1.49c1.69-1.46,3.76-1.77,5.83-2.24,6.77-1.52,13.49-3.22,20.28-4.65,1.57-.34,3.31.1,5.22.19a8.25,8.25,0,0,0,.25-1.75c-.23-4.31-.36-8.63-.83-12.91-.68-6.25-1.55-12.49-2.49-18.71-.38-2.58-1.72-3.18-4.32-2.77-6.35,1-12.74,1.84-19.07,2.92a84.58,84.58,0,0,0-9.92,2.35c-2.73.81-5.36,2-8,3-1.68.65-2.24,1.46-1.91,3.27,1.46,8,1.14,16,1.2,24.07,0,4.51,0,9,0,13.55a7.34,7.34,0,0,0,.13,2.1c1.25,4.3,1.08,8.74,1.52,13.13.32,3.27,1.09,6.5,1.44,9.78a49.1,49.1,0,0,1,.29,8.13c-.2,3.27-.84,3.56-3.74,2.62a7.62,7.62,0,0,1-1-.5c1-5.08-1.6-9.65-2.32-14.54a7,7,0,0,1-.13-.9,144.11,144.11,0,0,0-1.86-15.19c-.59-3.94-.13-8-.17-12-.08-7.55-.11-15.09-.31-22.64-.08-2.89-.52-5.78-.89-8.66-.22-1.77-.88-2.34-2.83-2.46C762.45,64.56,760.84,64.52,760.43,62Z"/><path d="M50.4,162.68a21.44,21.44,0,0,1,2.31-1.94,58.68,58.68,0,0,0,13.65-11.25,56.63,56.63,0,0,0,6.83-8.75,97,97,0,0,0,4.73-9.39c.76-1.63.16-2.64-1.42-4a7.63,7.63,0,0,1-2.31-3c-.75-2.09-2.34-3.46-3.68-5-.26-.3-.69-.52-.83-.87-1.15-3-4.19-3.79-6.38-5.55a4,4,0,0,0-2.57-.58,4.62,4.62,0,0,1-3.81-1.45c1.81-4.77,3.42-9.44,5.37-14,1.42-3.3,3.32-6.38,4.93-9.6,1.23-2.48,3-4.83,2.23-8.08l-3.52-.62c.71-.63,1-1.19,1.48-1.29,2.15-.49,4.31-.94,6.49-1.24,2-.27,3.95-.38,5.71-1.63a6.16,6.16,0,0,1,3.15-.82c5.13-.23,10.25-.35,15.38-.54,3.34-.12,4.76,2,3.56,5.07a38.27,38.27,0,0,0-1.09,4.31c-.47,1.84-.87,3.71-1.46,5.51C97.48,93,95.71,98,94,103c-1.41,4.16-2.85,8.31-4.17,12.51-.7,2.19-1.18,4.45-1.74,6.69-.39,1.55-.7,3.13-1.14,4.67a4.57,4.57,0,0,0,.44,4c3.34,5.38,6.5,10.87,9.89,16.22a8,8,0,0,0,3.24,2.59c3.36,1.61,6.76,3.14,10.24,4.46,6.49,2.45,13.23,4.32,19.52,7.2,4.94,2.26,10.23,2.91,15.24,4.68.18.06.44,0,.57.15.55.48,1.06,1,1.58,1.5-.57.3-1.14.87-1.71.86a95.75,95.75,0,0,1-9.89-.48,49.3,49.3,0,0,1-10.49-2.69c-3.29-1.19-6.88-1.53-10.19-2.65A124.79,124.79,0,0,1,96.46,155a5.4,5.4,0,0,1-1.72-1.17c-3-3.74-6-7.47-8.81-11.34-.78-1.09-.83-2.68-1.39-4-.24-.54-1-1.26-1.42-1.22a2.5,2.5,0,0,0-1.87,1.13c-2.26,5.89-6.7,10.25-10.62,14.91a19.9,19.9,0,0,1-7.8,6,21,21,0,0,0-2.91,1.57C57.16,162.52,54.15,162.62,50.4,162.68Zm36.22-60.42a29.36,29.36,0,0,0,2.25-3.69c1.18-3,2.22-6,3.25-9,1.12-3.29,2.16-6.59,3.32-10.16-.85-.28-1.63-.83-2.29-.7-3,.58-6.28-.44-9.21,1.14-.48.26-1.19.09-1.78.17-1.68.25-3.36.53-5,.8A2.72,2.72,0,0,0,75,82.75c-1.78,4.14-3.65,8.24-5.45,12.37-.29.67-.45,1.4-.83,2.63,2.09-.18,3.79,0,5.2-.52,2.64-1,4.68-.11,6.76,1.27C82.52,99.71,84.38,100.84,86.62,102.26Zm-25.2,6.81c.35.28.43.4.51.4a2.78,2.78,0,0,0,.87,0c3.46-1.3,6.31.12,8.91,2.14a36.9,36.9,0,0,1,3,3.33,63,63,0,0,0,5.41,5.19c1.61,1.28,2.49.78,2.86-1.17.64-3.42,1.29-6.83,2-10.46-1.7-1.38-3.31-3-5.61-3.69-2-.62-3.84-1.81-5.85-2.33a26.73,26.73,0,0,0-6.19-.65,2.82,2.82,0,0,0-2,1.09C63.87,104.88,62.67,107,61.42,109.07Z"/><path d="M1458.33,56.85c3.77.19,7,.29,10.14.53a2.59,2.59,0,0,1,2.67,2.66,2.8,2.8,0,0,1-2.81,2.6c-1.71.13-3.43,0-5.13.23a10.2,10.2,0,0,0-3.16.89,2.26,2.26,0,0,0-1.35,2.74,58.13,58.13,0,0,1,1.11,15,23.18,23.18,0,0,0,.42,3.28c.51,4.39,1,8.78,1.48,13.17a3.76,3.76,0,0,0,2.92,3.63,114.17,114.17,0,0,1,11.69,4.84,67.69,67.69,0,0,1,5.82,3.69c2.4,1.45,4.83,2.88,7.32,4.18,1.79.94,2.47,2.53,3.1,4.28-.64,1.2-1.51,1.09-2.54.57-5.12-2.55-10.23-5.15-15.4-7.59-3.08-1.46-6.27-2.71-9.44-4a19,19,0,0,0-3.43-.66,40.2,40.2,0,0,0-1.13,4.26c-.93,6.15-1.76,12.3-2.65,18.45-.42,2.89-2.74,4.09-5.33,2.67a12.33,12.33,0,0,1-3.34-2.56c-3.63-4.12-7.48-8.15-8.42-13.92a4,4,0,0,0-.51-1.42c-2.49-4.05-3.34-8.74-5.08-13.09-.29-.74-.41-1.55-.65-2.31a2.85,2.85,0,0,1,1.13-3.48,8.23,8.23,0,0,1,4.13-1.56,86.44,86.44,0,0,1,9.85,1.07,16.81,16.81,0,0,1,2.83,1c.82.26,1.65.48,2.88.84a26.81,26.81,0,0,0,0-3c-.44-3.77-1-7.54-1.4-11.32-.13-1.28.17-2.6.11-3.9-.17-3.72-.39-7.43-.64-11.14-.14-1.92-.65-2.53-2.68-2.45a63.75,63.75,0,0,0-6.86.9c-1.88.29-3.76.64-5.63,1a14.07,14.07,0,0,0-2.94.61c-4.36,1.83-8.68.71-13,0-1.12-.19-2-.64-1.93-1.9s.5-2.25,1.81-2.43c2.09-.27,4.19-.41,6.28-.59a35.27,35.27,0,0,0,3.57-.25c2.26-.42,4.48-1.08,6.75-1.5q5.61-1,11.27-1.85c1.37-.19,2.1-.91,2.06-2.14-.1-2.92,1-5.88-.36-8.76a4.47,4.47,0,0,1-.23-2.07c.28-4.91.76-9.82.86-14.74.09-4.62-.29-9.26-.28-13.89a10.31,10.31,0,0,1,1-4.23,2.78,2.78,0,0,1,2.21-1.08,2.06,2.06,0,0,1,1.89,2,31.13,31.13,0,0,1,.44,3.59c.06,5,.36,10.08-.06,15.07-.49,6,.16,11.85.45,17.77.07,1.3,0,2.61.06,3.92C1458.24,55.3,1458.3,56.17,1458.33,56.85Zm-17.77,43.71c.42,1.3.76,2.42,1.14,3.52.8,2.26,1.6,4.52,2.45,6.76a22.27,22.27,0,0,1,1,2.17c1.11,4.35,4,7.44,7.09,10.66,2-2.71,1.24-5.75,1.74-8.55s1.17-5.52.26-8.35c.19-.23.39-.45.58-.69,1.38-1.74,1.28-2.43-.61-3.47a10.46,10.46,0,0,0-2.21-.93,26.79,26.79,0,0,0-4.66-1C1445.14,100.47,1442.89,99.74,1440.56,100.56Z"/><path d="M1330.55,90.67a22.82,22.82,0,0,0,3.42-2.32c3.24-3.13,7.47-4.26,11.45-5.87,2.87-1.17,5.95-1.91,8.7-3.3,7-3.51,13.58-2.58,20.27.69,4.35,2.13,7.12,5.86,9.72,9.61,1.69,2.44,1.58,5.65,1,8.53-1.33,6.59-2.77,13.2-6.54,19q-3.72,5.67-7.53,11.28a9.07,9.07,0,0,1-1.48,1.49c-1.55,1.42-3.15,2.81-4.68,4.25-1.14,1.06-2.26,2-4.33,1,.66-1.3,1-2.76,1.91-3.66,3.31-3.31,5.16-7.58,7.82-11.31,3.11-4.36,4.19-9.49,5.92-14.4a39.11,39.11,0,0,0,1.94-10.83,7.36,7.36,0,0,0-3.43-7c-2-1.29-3.64-3-6.08-3.75-4.47-1.41-8.53-.55-12.6,1.22-2.29,1-4.63,1.88-6.9,2.93-3.45,1.6-6.87,3.29-10.29,5-2.25,1.1-4.42,2.43-6.76,3.3a15.11,15.11,0,0,0-5,2.68,3.69,3.69,0,0,1-1.53.9c-1.13.25-2.49,1-3.31-.38s-1.73-2.32-1.19-4.12c2.17-7.22,4.41-14.43,6.11-21.76,1-4.48,2-9,3.07-13.46a6.61,6.61,0,0,0-.08-1.56c-1.35.12-2.62.15-3.85.35-2.09.32-4.15.91-6.24,1.1-2.43.21-3.51-.87-3.35-3.09a2.5,2.5,0,0,1,.86-1.74,15.61,15.61,0,0,1,4.07-1.92c3.3-.85,6.66-1.51,10-2.15a2.35,2.35,0,0,0,2.16-2.1c.85-4.52,1.87-9,2.65-13.55.34-2,.67-3.91,2-5.56a12,12,0,0,0,1.41-3,1.64,1.64,0,0,1,1.87-1.16,1.91,1.91,0,0,1,1.87,1.59,10.38,10.38,0,0,1-.24,6.19,53,53,0,0,0-2.3,15.09,5.28,5.28,0,0,0,4.79,0c3.94-1.79,8.23-1.75,12.36-2.52a15.59,15.59,0,0,1,1.81,0,2.18,2.18,0,0,1,2.46,1.31A3.05,3.05,0,0,1,1362,51a6.13,6.13,0,0,1-4.54,2.13,30.92,30.92,0,0,0-11.2,2.11,12.93,12.93,0,0,1-3.86.58,5.61,5.61,0,0,0-5.07,4.1,74.78,74.78,0,0,0-2.17,7.21c-1.54,6.24-3,12.5-4.46,18.75-.34,1.44-.57,2.91-.85,4.36Z"/><path d="M649.51,104.43c-5.28,1-9.9,1.14-14.11,3.39a7.6,7.6,0,0,1-3.77.75,17.7,17.7,0,0,0-8.73,2,11.42,11.42,0,0,1-2.28.8c-1.62.4-3.7-.32-4.3-1.41s-.11-3.45,1.19-4.61c2.55-2.27,5.17-4.46,7.63-6.81,2-1.93,3.86-4.06,5.78-6.09.76-.8,1.58-1.55,2.31-2.37,1-1.12,2.3-2.14,2.85-3.46,1.26-3.06,3.57-5.27,5.48-7.82,2.15-2.87,4.13-5.86,6.28-8.92-1.44-.55-2.18.24-2.89.85-2,1.7-4.29,2-6.78,1.84-4.9-.24-9.07-2.35-13.07-4.94a14.8,14.8,0,0,1-2.4-1.81c-1.53-1.51-3.5-2.84-2.78-5.54.1-.37-.3-.88-.48-1.37a4,4,0,0,1,4.73.56,68.93,68.93,0,0,0,9.13,5.83,8.53,8.53,0,0,0,7.31.3c3.28-1.26,6.53-2.57,9.81-3.84,2.23-.87,4.57-1.32,6.6-2.83,1.55-1.16,4-.21,5,1.5s-.2,3.4-1.11,4.35c-5.3,5.47-8.64,12.32-13.15,18.32-3.38,4.49-7,8.8-10.51,13.19-.6.76-1.16,1.53-1.81,2.39.56.3.82.56,1.06.55,3.71-.26,7.41-.62,11.13-.81a23.34,23.34,0,0,0,8-1.43,9.19,9.19,0,0,1,2.36-.41c1.25-.16,2.51-.13,3.1,1.23a3.46,3.46,0,0,1-.38,4c-3.92,4-5,9.5-7.84,14.06-1.88,3-2.12,6.4-2.67,9.74-.3,1.88-.73,3.75-1.06,5.63-1.26,7.16-.74,14.08,3.65,20.16a23,23,0,0,0,9.62,7.46,13.58,13.58,0,0,1,3.68,2.47c.92.87.49,2-.79,2.21a12.71,12.71,0,0,1-9-1.45c-1.37-.81-2.73-1.67-4.1-2.48a15.35,15.35,0,0,1-6.14-6.84c-.77-1.63-1.45-3.31-2.17-5-.12-.27-.38-.51-.41-.79-.46-4.28-1.7-8.66-1.15-12.81.77-5.8,1-11.72,2.94-17.41a54.31,54.31,0,0,1,3.69-9.16A12.61,12.61,0,0,0,649.51,104.43Z"/><path d="M328.39,134.24c2.72-2.41,2.72-2.41,3-4.06a12.37,12.37,0,0,0-5.58.43c-5.1,1.47-10.2,3-15.26,4.56a10,10,0,0,0-3,1.85c-1.7,1.37-3.37.89-3.79-1.2-1.32-6.5-2.17-13-1.44-19.68a77.21,77.21,0,0,0-.08-10.2q-.21-9-.47-18.08c-.05-1.59-.16-3.17-.26-4.89L297.19,79a16.36,16.36,0,0,1,2.19-.75,22.11,22.11,0,0,0,3-.39c2.22-.71,4.28-1,6.29.6a2.7,2.7,0,0,0,2,.39c4.32-.86,8.61-1.93,12.95-2.69a43.33,43.33,0,0,1,7.8-.59c2.46,0,3.3,1.18,3.39,3.65.4,10.13.77,20.26,1.28,30.39.16,3.2.75,6.38,1.14,9.57.51,4.31.87,8.61-.55,12.83a15,15,0,0,1-.64,2c-.78,1.55-1.69,3-3.69,3.17C330.14,137.41,329.33,135.92,328.39,134.24Zm1.3-32.31c-.27-2-.63-3.57-.68-5.15-.13-4.1-.14-8.2-.17-12.3,0-1.87-.86-2.8-2.7-2.84a9,9,0,0,0-1.8.15c-4.62.92-9.24,1.83-13.84,2.8-2,.43-2.54,1.17-2.53,3.4,0,2.81,0,5.63.11,8.44.09,3.21.23,6.42.38,9.62.08,1.78.49,2.13,2.22,1.79a24.66,24.66,0,0,0,4.36-1.11c3.55-1.4,7-3,10.84-3.51A22.84,22.84,0,0,0,329.69,101.93Zm-21.84,26.69c3,.79,4.59.72,6.72-.25a36.84,36.84,0,0,1,14.3-3c2.93-.09,3.37-.37,3-3.39-.6-4.55-1.4-9.06-2.18-13.94a30.35,30.35,0,0,0-3.32.63c-2.49.79-4.94,1.71-7.42,2.52a7.26,7.26,0,0,1-6.09-.2c-2.5-1.31-4.06-.34-4.32,2.48-.42,4.5-.62,9-.89,13.53A8.57,8.57,0,0,0,307.85,128.62Z"/><path d="M1546.9,43.57a20.24,20.24,0,0,0,2.74.39c3.11-.13,6.24-.23,9.34-.5a104.41,104.41,0,0,1,16.87.32c2,.15,4,0,6,.14,1.46.09,3.24-.06,3.86,1.71a4.44,4.44,0,0,1-1.08,4.95c-3.11,3.28-5.84,6.92-9,10.17a90.64,90.64,0,0,1-7.08,6c-.45.38-.85.8-1.57,1.49a37.13,37.13,0,0,0,3.74,3.1c4.43,2.75,7.87,6.53,11.07,10.55a5.13,5.13,0,0,1,.91,3,2.56,2.56,0,0,1-1.4,1.72c-.86.4-1.54-.24-1.79-1.12a3.92,3.92,0,0,0-2.35-2.55c-.68-.33-1.12-1.14-1.73-1.64-2-1.66-4-3.28-6.07-4.89-.55-.44-1.32-.65-1.75-1.16-3.2-3.73-7.67-5.82-11.35-8.93-2-1.68-3.78-3.6-6.57-4a5.52,5.52,0,0,1-1.83-1c1-2.45,2.5-2.61,3.87-2.17a28.1,28.1,0,0,1,4.9,2.24c2.21,1.2,4.35,2.51,6.48,3.82a2.15,2.15,0,0,0,3.17-.53q3.11-3.86,6.27-7.67c1.46-1.77,3-3.51,4.45-5.28.42-.49.79-1,1.57-2.08-2.4-.16-4.27-.4-6.12-.38-7.35.06-14.71,0-22,.4a42.26,42.26,0,0,0-11.54,1.93c-3.77,1.29-7.45.44-11.14.87-3.38.4-6.76.9-10.09,1.63-2.39.52-2.49.73-2.33,3.08.26,3.8.74,7.59,1.13,11.38.31,3.08.63,6.17.91,9.26.12,1.26-.32,2.17-2.17,2.27a21,21,0,0,1-1.17-3.49c-.53-3.57-.88-7.16-1.36-10.74-.07-.54-.35-1.46-.66-1.51-2.12-.4-1.54-2-1.65-3.32-.25-3.17-.46-6.36-.86-9.52a2.4,2.4,0,0,1,1.64-2.82,7.07,7.07,0,0,1,2.07-.34,19.56,19.56,0,0,0,3.61-.26c5.88-1.66,11.93-1.66,18-2,3.13-.17,5.66-1.49,7-4.47A13.25,13.25,0,0,1,1545,37a7.58,7.58,0,0,0,1-1.89c-3.94-1-7.62-1.86-11.24-2.92a71.8,71.8,0,0,1-7.92-2.84,2.79,2.79,0,0,1-1.43-2,2.3,2.3,0,0,1,1.85-2.44,4.71,4.71,0,0,1,2.08,0c5,1.29,9.91,2.58,14.82,4a36.53,36.53,0,0,1,5.57,2.31c2.52,1.24,3.16,3.5,1.75,6a24.17,24.17,0,0,1-1.76,2.43Z"/><path d="M443.52,102.6a4.27,4.27,0,0,1,3.19-4.26c4.7-1.5,9.36-3.15,14.14-4.33,3.2-.79,6.59-.79,9.85-1.35A62.16,62.16,0,0,0,477.1,91a1.87,1.87,0,0,0,1.29-2.4,24,24,0,0,0-.94-4.41,38.13,38.13,0,0,1-2.82-12.52c0-1.75-1-3.46-1.29-5.23-.43-2.25-.67-4.54-1-6.81-.19-1.26-.39-2.52-.6-3.9l-4.16.28-.31-.63c1-1.32,1.84-2.71,2.91-3.93a2.65,2.65,0,0,1,4-.4,3,3,0,0,1,.26,4.28,5.73,5.73,0,0,1-.91.7c2.48-.07,3.25,1.72,4,3.25a20,20,0,0,1,1.53,4.57q1.8,7.62,3.46,15.27c.51,2.35.85,4.74,1.26,7.12.43,2.53,1.46,3.18,3.69,1.94,3.38-1.87,7.09-2,10.76-2.49a3.6,3.6,0,0,1,2.24.58,2.52,2.52,0,0,1-.46,4.55,6.64,6.64,0,0,1-.87.25c-3.67,1-7.35,2-11,3.08-2.88.85-2.94,1.21-2.73,4.3s.15,6.42.18,9.63c0,.9-.17,1.82-.07,2.71.93,9-.23,17.88-1,26.78-.33,3.69-.71,7.58-2.17,10.89-1.81,4.1-2.33,8.71-5.16,12.42-1.75,2.28-2.87,5.05-4.58,7.37a53,53,0,0,1-5.31,5.71c-.27.26-1,0-2.29,0,1-1.18,1.58-1.91,2.2-2.6s1.46-1.22,1.79-2q2.21-5.25,4.16-10.6c1-2.81,1.86-5.68,2.76-8.52s1.84-6,2.74-8.94a5.31,5.31,0,0,0,.12-1.2q.48-11.15.95-22.3a16.28,16.28,0,0,0,0-2.42,92.45,92.45,0,0,1-.13-13.21,9,9,0,0,0,0-1.8c-.59-3.52-1.07-3.57-4.52-2.54s-7.09,1.45-10.62,2.24c-5.39,1.22-10.78,2.46-16.13,3.83C446.36,104.39,445,103.73,443.52,102.6Z"/><path d="M181.76,113.71a20.67,20.67,0,0,0,2.53-1.4c5.6-4.14,12.06-6.36,18.62-8.33,3-.91,4.94.53,4.8,3.71a46.37,46.37,0,0,1-.92,7.13c-.92,4.51-1.83,9-3.07,13.47-1.33,4.72-3,9.35-4.6,14a8.55,8.55,0,0,1-1.56,2.56c-1.94,2.33-3.91,2.74-6.72,1.55A9.46,9.46,0,0,1,185,140.3c-1.24-4-2.57-8-3.89-12a18.1,18.1,0,0,0-1-2.07c-.6.54-1.15.84-1.38,1.29a44.63,44.63,0,0,0-4,11c-.89,4.11-2.09,8.16-3.28,12.2a15.94,15.94,0,0,1-1.6,3c-3.18-1-3.45-1.18-3.34-3.69a23.67,23.67,0,0,1,.74-4.72c1.25-5,2.62-9.91,3.89-14.87.62-2.46-.19-3.34-2.61-2.55-2,.66-3.46.4-4.81-1.21s-1.37-2.83.6-3.81a39.18,39.18,0,0,1,6.6-2.95c2.32-.67,2.88-2.19,3.13-4.2.39-3.16.87-6.3,1.25-9.46.49-4,1.16-8,1.31-12,.12-3.57,1.92-6.52,2.92-9.75.22-.7,1.26-1.33,2.06-1.64a2.36,2.36,0,0,1,3.23,2.37,4.08,4.08,0,0,1-.4,2c-2.22,3.5-2.26,7.41-2.22,11.33a29.5,29.5,0,0,1-.74,7.76c-.56,2.17-.34,4.55-.46,6.83Zm19.4.81c-.07-1.84-.73-2.5-2.48-2.17a21.38,21.38,0,0,0-2.56.86c-5.28,1.77-9.89,4.83-14.64,7.61-1.63,1-1.74,2.41,0,3.17a7.06,7.06,0,0,1,4.11,5.92c.5,4.11,3.94,5.91,5.93,8.81.8,1.16,2.36.74,2.81-.65.93-2.84,1.73-5.72,2.56-8.59.63-2.2,1.23-4.42,1.86-6.62Q199.93,118.69,201.16,114.52Z"/><path d="M.08,145.66c0-.55-.2-1.2,0-1.62,1.91-3.52,3.49-7.18,5.62-10.62C9,128.18,13.61,124,16.9,118.93a130.57,130.57,0,0,1,8.65-11.84,33.9,33.9,0,0,0,6.24-11.22,6.87,6.87,0,0,1,1.76-2.4c2.15-2.24,4.05-4.56,4.73-7.76.31-1.45,1.69-1.79,3.23-1.12a9.4,9.4,0,0,1-.11-2.35c.14-.6.54-1.45,1-1.61a34.2,34.2,0,0,1,6.12-1.51c1.94-.25,2.65.69,2,2.52A14.21,14.21,0,0,1,48,86.39c-2.26,2.43-3.13,5.61-5,8.22-2.87,4.1-5.79,8.16-8.81,12.14A6,6,0,0,0,32.67,111c1-.33,1.8-.54,2.56-.85a20.45,20.45,0,0,1,3-1.33c3.07-.69,4.9.62,5.12,3.74A21,21,0,0,1,43,117c-.26,1.76-.85,3.5-.94,5.27-.45,8.95-.7,17.91-1.2,26.85-.27,4.82-.8,9.62-1.42,14.41a8.84,8.84,0,0,1-2.78,5.87,2.45,2.45,0,0,1-3,.26,1.8,1.8,0,0,1-.83-2.59c2.48-4.91,1.34-10.27,1.89-15.4.8-7.49.82-15.07,1.23-22.6.21-3.71.56-7.41.83-11.11.2-2.68-.34-3-2.92-3.41-4.91-.72-7.58,2.36-10.22,5.61-3.35,4.11-6.88,8.09-10,12.38S6.82,140.2,3.28,143.88A26.47,26.47,0,0,1,.79,146Z"/><path d="M723.1,148.78a1.44,1.44,0,0,1,.46-2.41c7.08-3.88,9-10.86,11-17.89s1.61-14.12,1.8-21.23a4.84,4.84,0,0,0-.35-2.07c-1.64-3.57-3.45-7.05-6.36-9.79-2.41-2.27-5.23-3.36-8.57-2.45-2.45.67-2.83,1.24-2.9,3.85-.14,5.81-.27,11.63-.49,17.45-.08,2.31-.35,4.61-.56,6.91a3.88,3.88,0,0,1-5.81,3.23c-4-1.93-7.92-3.87-11.91-5.73-4.22-2-6.26-5.65-5.41-10a4,4,0,0,1,.43-1.43c3.12-4.8,6.33-9.52,11.34-12.65A14.25,14.25,0,0,0,709.07,92c3.48-4,8.2-5.15,13.12-5.84,4.49-.63,7.88,1.84,11.24,4.23,3.7,2.63,5.83,6.59,8,10.41a12,12,0,0,1,1.3,5.75c0,4.72-.24,9.46-.65,14.16a38.57,38.57,0,0,1-3.59,13.91c-.66,1.34-1.23,2.73-1.9,4.07A18,18,0,0,1,726,147.61C725,148,724.05,148.4,723.1,148.78ZM711.74,97.27a10.3,10.3,0,0,0-1.44,1c-1.2,1.2-2.18,2.69-3.56,3.61-2.78,1.85-4.07,4.84-6,7.31-1.49,1.91-1,2.92,1.3,3.91,2.82,1.22,5.68,2.35,8.51,3.52C711.59,114.3,712.53,100.17,711.74,97.27Z"/><path d="M1239.12,132.78c-1.65-.38-2-1.72-2.38-2.95-1.36-4-1.31-8.14-.91-12.23a149.68,149.68,0,0,0,.89-25c-.67-10.07-.66-20.17-.87-30.26,0-2.13-.82-2.82-3.15-1.91-2.72,1.06-5.52,1-8.29,1.15a5.8,5.8,0,0,1-3.35-.9c-1.44-.93-1.25-2.46.21-3.42a1.74,1.74,0,0,1,.81-.37c4.38-.21,7.75-4,12.34-3.48,1.14.12,1.54-.76,1.54-1.79,0-1.51-.07-3,0-4.52q.48-8.41,1.07-16.82a6.7,6.7,0,0,1,.67-2.29,4.31,4.31,0,0,0,.31-3.47c-.54-1.52.94-3.85,2.43-4.2a2,2,0,0,1,2.32,2.15c-.38,4.45,1,8.82.13,13.34-.76,3.92-.7,8-.9,12a25.37,25.37,0,0,0,.37,3.74c3.71-.33,7.1-.61,10.48-1,2.39-.24,3,.14,3.72,2.42.57,1.88.4,2.72-1.34,3.36a28.38,28.38,0,0,1-5.8,1.32c-1.69.25-3.42.14-5.11.32a2.14,2.14,0,0,0-2.08,2.46c.19,7.94.2,15.88.58,23.81.42,8.84.56,17.67.22,26.51a12.71,12.71,0,0,1-.21,1.49c-.77,4.35-1.59,8.68-.89,13.16a12.63,12.63,0,0,1-.36,4.17A4,4,0,0,1,1239.12,132.78Zm-13.79-74,.12.53,1.36-.26c0-.25-.1-.5-.16-.74Z"/><path d="M988.34,65c-3.12.42-6,.83-8.86,1.19-2,.25-4,.5-6,.66s-4,.12-6,.34c-3.17.35-3.16.41-5-1.87-1.31.39-2.1,2.69-4.15,1.2,0-.47-.06-1.11-.11-2.12l-3.78,1c-.19-2,.25-2.93,1.87-3.39a17,17,0,0,1,3.28-.42c4.92-.36,9.85-.58,14.76-1.07,3-.3,5.91-1.09,8.89-1.5,4.28-.58,8.57-1,12.86-1.52a10.87,10.87,0,0,1,1.5-.14c3.12.17,4.45,2.73,2.67,5.28a12,12,0,0,1-2.17,2A15,15,0,0,0,995.45,67c-2.9,4.33-5.82,8.66-8.4,13.18a72.12,72.12,0,0,0-3.67,8.55c-.46,1.11-.85,2.25-1.33,3.35a21.93,21.93,0,0,0-2.09,9.61c.06,2.59-.53,5.16.41,7.75,2,5.41,2.68,11.29,6.28,16.09a13.78,13.78,0,0,0,5.15,4.5c4.08,1.92,8.17,3.83,12.24,5.77a15.52,15.52,0,0,1,2.34,1.36,2.15,2.15,0,0,1,.94,2.87c-.57,1.14-1.73,1-2.67.74-3.55-1.08-7-2.37-10.62-3.38-4.84-1.37-8.47-4.62-12-7.86a16,16,0,0,1-3.69-6.47c-1.77-5.1-3.24-10.32-4.66-15.54a10.6,10.6,0,0,1,0-4.2c.66-4.67,1.25-9.35,2.26-13.94a46.29,46.29,0,0,1,3-8.2,84.42,84.42,0,0,1,4.19-8.67C984.53,70.06,986.36,67.81,988.34,65Z"/><path d="M1692.11,107.26c2.32,3.25,2.34,5.39-.28,7.39a44.76,44.76,0,0,1-7.71,4.55,75.84,75.84,0,0,1-10,4.11c-5.35,1.7-10.77,3.25-16.25,4.47a19.78,19.78,0,0,1-12.4-1.56c-2-.89-2.89-2.59-3.49-4.85a23.78,23.78,0,0,1-.15-12.19,27,27,0,0,1,1.78-4.47,3.11,3.11,0,0,0-.29-3.35c-2.1-3.17-4.08-6.42-6-9.72a32.45,32.45,0,0,1-2.07-4.89c-1.51-4.14-4.61-7.59-5.24-12.12a4.38,4.38,0,0,0-.77-1.6,8.67,8.67,0,0,1,0-9.34,1,1,0,0,1,1.78-.07c.59.8,1.41,1.77,1.37,2.63-.12,3.14,1.83,5.47,2.86,8.14q1.88,4.92,4,9.74c.85,1.9,1.93,3.71,2.94,5.54.63,1.13,1.32,2.23,2,3.3l4,1.48c.74-1,1.75-2.34,2.66-3.71,1.66-2.51,3.34-5,4.84-7.6a10,10,0,0,1,4.3-4.08l5.38-2.68a4.9,4.9,0,0,1,4.7,1.06,2.78,2.78,0,0,1-1.49,4.52,2.47,2.47,0,0,1-.59.12c-3.2-.09-5.79.56-6.31,4.43-.11.85-1.3,1.5-1.81,2.36-3.52,5.83-7.21,11.57-10.37,17.58a39.73,39.73,0,0,0-3,9.74c-.72,3.19.51,4.87,3.77,5.09,4,.27,8,.43,12-.91,4.66-1.59,9.49-2.72,14.07-4.51s9-4.07,13.37-6.26A13,13,0,0,0,1692.11,107.26Zm-32.77,17.23a4.66,4.66,0,0,0,5.28-1.62C1662.46,122.38,1660.87,122.4,1659.34,124.49Z"/><path d="M49.63,26.37c5-4.14,10.08-2.91,14.92-1.59,4,1.11,7.84,3.07,11.7,4.78,4.36,1.94,3.68,4.81,1.54,7.75-1.59,2.18-2.94,4.54-4.56,6.7a29.47,29.47,0,0,1-3.37,3.43c-2.74,2.64-5.5,5.26-8.76,8.37a13.53,13.53,0,0,0,2.64.27c7.57-1,15.15-2,22.69-3.28a87.72,87.72,0,0,1,18.93-1.19,6.69,6.69,0,0,1,.9.09c1.77.26,3.1,1.45,3.08,2.75a3.52,3.52,0,0,1-3.56,3c-1.7,0-3.42-.36-5.12-.28-2.59.11-5.19.36-7.77.72-5.56.76-11.11,1.64-16.66,2.45-5.17.75-10.33,1.45-15.5,2.19-4.17.59-8.36,1.1-12.5,1.86-3.33.61-6.6,1.55-9.89,2.36-.39.09-.77.48-1.1.43-3.52-.56-6.73.77-10,1.49a6.35,6.35,0,0,1-1.79.15,2.26,2.26,0,0,1-2.2-2.12,2.19,2.19,0,0,1,1.35-2.43c2.29-1,4.4-2.3,7.06-2.33,1.1,0,2.16-1,3.27-1.44a19.71,19.71,0,0,1,4.19-1.47c3.48-.53,7-.76,10.48-1.22a43.47,43.47,0,0,0,5.3-1.14A5.73,5.73,0,0,0,59,52.77a15.62,15.62,0,0,1,3.09-4.37c2-2.27,4.31-4.23,5.14-7.32.16-.6.89-1,1.37-1.56,2.1-2.18,2.15-3.33-.39-5.07-2.81-1.92-5.92-3.37-8.79-5.2-2.41-1.54-5.3-.69-7.74-1.87C51.07,27.1,50.49,26.8,49.63,26.37Z"/><path d="M1751.48,118.39c-.21,3.2-.33,6.41-.66,9.59a6.54,6.54,0,0,1-2.69,4.57,5.32,5.32,0,0,0-1.25,1.3c-1.75,2.75-3,3.06-6.25.51-2.32-1.81-4.09-4.39-5.91-6.78s-3.31-4.76-4.83-7.22a46.29,46.29,0,0,1-2.32-4.55q-1.23-2.58-2.35-5.21a3.7,3.7,0,0,1-.43-1.71,4.21,4.21,0,0,0-.79-3.1,1.66,1.66,0,0,1,.65-2.56,16.74,16.74,0,0,1,9.67-2.92,57.26,57.26,0,0,0,8.37-.59,2.49,2.49,0,0,0,2.2-3.32c-1.5-5.7-1.48-11.56-2-17.36a71.69,71.69,0,0,1,0-8.42,1.18,1.18,0,0,1,2.16-.73,11.12,11.12,0,0,1,2.39,4.73c.65,4.68.8,9.41,1.25,14.12.3,3.1.79,6.18,1.13,9.27a2.5,2.5,0,0,0,2.35,2.34c2.48.42,5,.79,7.45,1.23s4.94.88,7.38,1.43q4.11.9,8.18,2a12.09,12.09,0,0,1,6.63,3.93c.34.43.67,1.27.47,1.6a3,3,0,0,1-1.66,1,3.32,3.32,0,0,1-1.48-.14c-4.23-.91-8.43-2-12.7-2.72-4.06-.67-8.17-1.06-12.28-1.37-2.09-.16-2.74.46-2.85,2.6-.16,2.8,0,5.63,0,8.45Zm-21.88-10.94a4.24,4.24,0,0,0-.07,1.1,5.83,5.83,0,0,0,.55,1.4c3.29,5.59,6,11.57,10.77,16.18,1.62,1.57,2.34,1.67,4.05.36,1.13-.85,1.21-1.91,1.1-3.2-.35-4-1-7.94-.33-12a23,23,0,0,0-.22-4.89C1740,105.92,1734.82,105.41,1729.6,107.45Z"/><path d="M263.65,153.43c-.18,1.87-1.45,3.47-2.73,3.71a2.77,2.77,0,0,1-3.11-1.88c-1.39-3-2.71-6.06-3.82-9.18-1.5-4.16-2.76-8.41-4.14-12.62a81,81,0,0,0-5.33-13.29c-1.85-3.43-3.33-7.06-5.21-10.47-2.51-4.55-5.26-9-7.92-13.44-.15-.26-.44-.49-.48-.76-.66-4.63-3.89-8-5.94-11.92-1.57-3-3-6.11-4.72-9.07-3.26-5.77-6.61-11.48-10-17.17a5.08,5.08,0,0,0-2.19-2c-3.5-1.48-5.55-4.61-8.24-7-1.31-1.18-.83-2.6.85-3.26a3.43,3.43,0,0,1,4.2,1.51,5.65,5.65,0,0,0,3,2.24,9.84,9.84,0,0,1,3.37,1.93c3.35,3,6.52,6.22,8.18,10.64a34.88,34.88,0,0,0,3.44,6.35,105.52,105.52,0,0,1,8,14.09,53.55,53.55,0,0,0,2.74,4.66c1.44,2.52,2.9,5,4.23,7.62,1.57,3,3,6.16,4.53,9.21.77,1.5,1.72,2.92,2.61,4.36a43.08,43.08,0,0,1,4.63,10.09,3.25,3.25,0,0,0,.32.84c4.25,6.27,5.69,13.64,8.16,20.6,1.51,4.25,3.37,8.37,5.05,12.55C263.4,152.44,263.55,153.12,263.65,153.43Z"/><path d="M1416.84,107.38a3.78,3.78,0,0,0,.61-1.22c.3-3.06.14-6.23.88-9.18,1-4,1.2-8.13,3-11.9.59-1.25,1-2.67,2.59-3.34,1.18,1.86.33,3.73.15,5.51-.47,4.47-1.06,8.93-1.66,13.39-.25,1.88-.76,3.73-1,5.62-.29,2.59-.35,5.21-.63,7.8a17.33,17.33,0,0,1-.88,3.36c-.74,2.26-1.82,4.45-2.22,6.76a2.81,2.81,0,0,1-2.44,2.59,2.57,2.57,0,0,1-3-1.87,54.83,54.83,0,0,1-1-6.25c-.49-4.09-.38-8.34-1.47-12.25-1.63-5.86-1.43-11.72-1.48-17.64,0-6.43-.26-12.86-.35-19.29,0-1.81.12-3.61.18-5.42,0-.59.23-1.36,0-1.76-1.33-1.93-.55-4.09-.85-6.13-.28-1.88-.45-3.78-.59-5.68a4.62,4.62,0,0,1,.17-2.59c1-1.47.5-2.56-.22-3.89-1-1.82-.67-2.87.82-3.91,2.18-1.52,3.91-.93,4.43,1.7s.69,5.18,1.11,7.77c.38,2.38.89,4.73,1.31,7.11a10.59,10.59,0,0,1,.19,2.1c-.11,6.2-.29,12.39-.35,18.59,0,2.41.26,4.81.28,7.22,0,3-.21,6-.09,9,.14,3.82.48,7.63.84,11.43a9.15,9.15,0,0,0,1,2.37Z"/><path d="M1838.06,139c.66-1.06,1-1.66,1.4-2.23a68.83,68.83,0,0,0,10.24-20.64A79,79,0,0,0,1853,90q-.22-5-.28-10A65,65,0,0,0,1850,62.55a102.78,102.78,0,0,1-2-10.94,10.75,10.75,0,0,0-.31-2.08c-1.67-4.17-3.41-8.32-5.11-12.48a12,12,0,0,1-.92-2.85c-.08-.67.18-1.89.53-2a2.8,2.8,0,0,1,2.41.35c1.69,2,3.57,4,4.56,6.31a93.14,93.14,0,0,1,4.28,12.82c1.08,4.17,1.64,8.47,2.47,12.71.56,2.86,1.3,5.68,1.76,8.55a102.51,102.51,0,0,1,1,27.92c-1,8.69-2.53,17.42-6.76,25.21-2.22,4.09-5.5,7.63-8.47,11.28a8.88,8.88,0,0,1-3.3,2C1839.7,139.51,1839.05,139.15,1838.06,139Z"/><path d="M439.64,142.43c.41-2.88.73-5.21,1.06-7.54l.26-.08c.17.89.34,1.77.54,2.79,2.05-1.45,2.58-3.86,1.16-5.07-.71-.6-1.1-1.08-1-1.95.23-1.78.4-3.58.75-5.34.12-.59.7-1.1,1.47-2.22a14.17,14.17,0,0,1,1.05,2.83,43.9,43.9,0,0,1-.45,12c-.9,5.22-3.05,9.94-5.27,14.65-.9,1.91-1.83,2.48-3.71,2.38a2.06,2.06,0,0,1-2.16-1.71c-1.2-5.49-2.41-11-2.35-16.63s.41-11.24.6-16.85c.13-3.61.33-7.22.27-10.82-.08-6.23-.34-12.46-.53-18.68-.06-1.81-.21-3.62-.14-5.43.08-2,.11-3.84-2-4.93-.3-.16-.41-.66-.59-1,2.2-2.8,4.83-3.82,7.25-2.94a2.08,2.08,0,0,1,1.63,2.18c0,7.64.1,15.29.24,22.92.08,4.32.54,8.64.47,13-.13,7.64-.52,15.27-.81,22.91C437.33,138.81,437.31,140.69,439.64,142.43Z"/><path d="M1724.62,39c3.39.57,3.34.66,3.84,3.08.82,4-.58,7.49-1.87,11.06-.13.36-.28.71-.53,1.33a8,8,0,0,0,1.8.18c2.39-.36,4.76-.8,7.14-1.19a11.57,11.57,0,0,1,2.1-.25c1.83,0,3.1,1,3.26,2.44.21,2-.6,3.43-2.41,4a11.62,11.62,0,0,1-1.78.31c-2.79.38-5.58.69-8.36,1.13-2.61.42-4,2-4.53,4.53-1,4.51-2,9-3.09,13.48-.85,3.49-1.71,7-2.8,10.4a25.09,25.09,0,0,1-2.58,5.41c-1.68,2.75-2.94,2.81-5.53.49a2.9,2.9,0,0,1,.19-1.08c2.59-4.36,3.39-9.37,5.08-14.06a45.23,45.23,0,0,0,1-4.68c.6-2.43,1.29-4.84,1.9-7.27.32-1.28.56-2.58.93-4.29-1.47.13-2.44.15-3.4.3-2.08.33-4.17,1.11-6.22,1a29,29,0,0,1-7.24-1.68c-1.21-.41-1-2.31.33-2.85a42.3,42.3,0,0,1,5.75-1.73q5-1.23,10-2.26a4,4,0,0,0,3.41-3.67,20.87,20.87,0,0,1,.79-3.52c.82-2.44,1.26-5.07,3.91-6.5a1.44,1.44,0,0,0,.13-2.52A12.57,12.57,0,0,1,1724.62,39Z"/><path d="M1540.9,116.36a5.3,5.3,0,0,1,5.25,1.54c2.26,2.27,4.66,4.41,7.08,6.53,2.63,2.3,5.27,4.61,8.06,6.71,1.17.88,2.74,1.2,4.11,1.83a69,69,0,0,0,12.68,4.72,12.9,12.9,0,0,0,2.64.54c5.23.11,10.46.17,15.69.21a22.85,22.85,0,0,0,2.52-.23c-1-3.36-1.62-6.7-2.93-9.77-1-2.45-2.86-4.58-4.37-6.83a4.23,4.23,0,0,1-1.08-3.32,2.92,2.92,0,0,1,3.4,1.14c2,2.86,4.11,5.68,6,8.59,1.22,1.84,2.12,3.89,3.37,5.69a38.77,38.77,0,0,0,2.92,3,9.68,9.68,0,0,1,2.24,3.06c.61,1.92-.72,3.54-2.9,4.11a48.17,48.17,0,0,1-17.66,1c-3.89-.44-7.85-.54-11.66-1.35a48,48,0,0,1-8.69-3.24,45.42,45.42,0,0,1-6.43-3.22c-2.87-1.81-5.58-3.9-8.35-5.87a2.77,2.77,0,0,1-.67-.6c-.94-1.37-1.55-3.29-2.84-4a8,8,0,0,1-3.11-3.36,14.29,14.29,0,0,0-3.51-3.69A4.87,4.87,0,0,1,1540.9,116.36Z"/><path d="M1543.39,97.52l15.51-5.8-6.1-9.24c1-1.26,2.18-1.07,3.28-.52a14.22,14.22,0,0,1,3.8,2.42c1.68,1.69,3,3.71,4.58,5.53a40.88,40.88,0,0,0,4.42,4.86c2.83,2.39,5.87,4.54,8.83,6.77,1.8,1.36,1.1,3,.63,4.69-3.13.82-5.26-1-7.43-2.54-2.43-1.77-4.82-3.61-7.19-5.48a3.72,3.72,0,0,0-4-.5c-4.11,1.6-8.44,2.5-12.39,4.69-2.48,1.38-5.53,1.74-8.33,2.59-1.15.34-2.27.8-3.43,1.13-1.56.45-3,.32-4.08-1.09a3.69,3.69,0,0,1,.4-4.49c2.16-2.75,4.51-5.37,6.57-8.19,1.51-2.08,2.69-4.4,4-6.59,1.16-1.89,2.29-3.78,3.54-5.6a3.3,3.3,0,0,1,1.63-1.28,4.93,4.93,0,0,1,2.83-.17c1.19.43.94,1.7.59,2.63a51.87,51.87,0,0,1-2.44,5.8c-1.57,3-2.46,6.39-5,8.81C1543.42,96.15,1543.51,96.67,1543.39,97.52Z"/><path d="M1810.37,79c2.48-.89,3.33-3,4.51-4.8a40.5,40.5,0,0,1,3.62-4.75,8.44,8.44,0,0,1,2.12-1.35l.6.42a18.2,18.2,0,0,1-1.06,3.57,102,102,0,0,0-7.41,18,9.37,9.37,0,0,1-2.13,3.57,3.33,3.33,0,0,1-2.64.85c-.62-.12-1.25-1.2-1.49-2a12.81,12.81,0,0,1-.23-3c-.1-1.47-.32-3-.29-4.43.12-4.72-2.53-9.08-1.76-13.88a1.06,1.06,0,0,0,0-.59,26.06,26.06,0,0,1-2.91-9.64c-.2-2.59-.76-5.15-.89-7.73,0-.8.85-1.64,1.32-2.45.75.56,1.87,1,2.2,1.72a38.22,38.22,0,0,1,2.06,6.26c1,4,1.8,8,2.64,12,.48,2.26.87,4.53,1.33,6.79A12.39,12.39,0,0,0,1810.37,79Z"/><path d="M1095.51,73.37a20.2,20.2,0,0,1,.75-3c1.92-4.8,5-8.9,8.18-12.88,3-3.74,6-7.48,9.11-11.18,1.15-1.38,2.47-2.61,3.63-4s2.18-2.86,3.33-4.25c.75-.9,1.64-1.7,2.45-2.56.53-.57,1-1.19,1.57-1.73a7.41,7.41,0,0,1,2.21-1.82,2.51,2.51,0,0,1,2.12.53,2.09,2.09,0,0,1,.21,1.87c-2.39,6.2-5.58,11.92-10.46,16.56-.43.41-.82.88-1.24,1.3-1.61,1.63-3.25,3.22-4.82,4.88-2.9,3-5.75,6.14-8.66,9.18-2.46,2.57-5,5.08-7.49,7.61Z"/><path d="M1305.71,120.55a8.43,8.43,0,0,1-6.34,3.25c-5.69.45-11,2.3-16.27,4.18a12.1,12.1,0,0,1-3.58.24c-3.11.09-6.28-.15-9.33.32a5.78,5.78,0,0,1-6-2.48c-2-2.72-4.09-5.47-4.88-8.89,2-1.55,2.38-1.57,4-.06s3.11,3.13,4.82,4.5a4.27,4.27,0,0,0,2.73.83c3.71-.22,7.42-.53,11.1-1a62.35,62.35,0,0,0,6.12-1.43c2.15-.5,4.28-1.1,6.44-1.44s4.61-.38,6.89-.68C1303.48,117.61,1305,118.17,1305.71,120.55Z"/><path d="M1744.65,35.3c4.56-1.07,7.63.93,10.3,3.34,7,6.33,13.75,13,20.77,19.28,2.89,2.6,5.63,5.41,9.19,7.28,2,1,3.46,3,5.14,4.59a2.23,2.23,0,0,1,.77,2.69,3.22,3.22,0,0,1-2.93,1.8c-1.26.14-1.74-.64-2.11-1.7-.22-.62-.62-1.48-1.12-1.65-3.75-1.22-5.8-4.58-8.78-6.76a92.24,92.24,0,0,1-7.14-6c-2.37-2.17-4.59-4.5-6.88-6.75-.71-.7-1.44-1.39-2.17-2.08-2.2-2-4.38-4.11-6.63-6.1-1.72-1.52-3.52-2.95-5.32-4.38A9.9,9.9,0,0,1,1744.65,35.3Z"/><path d="M1250.9,87.72c3.31-2,6.44-4,9.64-5.79a6.7,6.7,0,0,1,2.61-.66c3.59-.34,7.2-.56,10.78-.94,2-.21,4-.64,6-.94,1.19-.19,2.38-.33,3.58-.45a2.09,2.09,0,0,1,2.44,1.28,2.54,2.54,0,0,1-.63,3.27,8,8,0,0,1-3.23,1.45A109.57,109.57,0,0,1,1270.55,87c-5,.44-9.81,2-14.69,3.17C1253.3,90.78,1252.82,90.63,1250.9,87.72Z"/><path d="M1534,60.42c.4,0,.81,0,1.21,0,3.51.3,4.17,1.32,3.68,4.91a51.57,51.57,0,0,1-7.41,20.2,27.54,27.54,0,0,1-4.09,4.76,5,5,0,0,1-4.54,1.12,2.55,2.55,0,0,1-1.82-1.26c-.18-.53.34-1.46.8-2,1.54-1.82,3.44-3.39,4.73-5.36a51.05,51.05,0,0,0,3.56-7.23c1-2.29,1.85-4.67,2.84-7,1.14-2.64,1-3.32-1-5.22a4.53,4.53,0,0,1-1-1.07,1.31,1.31,0,0,1,1-2,13.6,13.6,0,0,1,2.11.09Z"/><path d="M1057.58,145.07c-.34.45-.71,1.38-1.37,1.72-1,.5-2.13,1.54-3.3.41a8.07,8.07,0,0,1-2-2.56c-1.72-4.13-3.26-8.34-4.93-12.49-.25-.62-.89-1.08-1.25-1.68a22.27,22.27,0,0,1-1.2-2.33c-.41-.89-.76-1.82-1.15-2.72-.12-.27-.32-.51-.44-.78-.8-1.71-.36-3.81.94-4.61s3.38.13,4.32,1.75c1.69,2.94,3.4,5.87,5,8.85a48.71,48.71,0,0,1,5,13.14C1057.33,144.07,1057.41,144.36,1057.58,145.07Z"/><path d="M1520.67,114c4.1-1.92,6.18-.6,5.82,3.29-.33,3.67-.45,7.32-2.37,10.74-1.25,2.21-1.52,4.95-2.53,7.32a34.81,34.81,0,0,1-3.17,5.38,2.72,2.72,0,0,1-1.69,1.1,3.7,3.7,0,0,1-2.45-.4c-.3-.2-.1-1.52.22-2.15,2.4-4.79,3.26-10.06,4.93-15.07a18.85,18.85,0,0,1,1.63-4.16C1522.36,118,1523,116.08,1520.67,114Z"/><path d="M1562.44,114.46c2.37-.51,4.37-.38,6,1.39a22.79,22.79,0,0,1,3.36,3.83,27.27,27.27,0,0,0,5.49,6.73c1.1,1,2,2.22,3,3.33.68.75,1,1.72.22,2.38a2.93,2.93,0,0,1-2.43.51,10.22,10.22,0,0,1-3.47-2.32c-2.39-2.52-5-4.82-6.33-8.3-.65-1.68-2.63-2.92-4.17-4.16S1562.63,116.83,1562.44,114.46Z"/><path d="M1893.41,128.81c-.27.42-.54,1.32-1,1.42a2.62,2.62,0,0,1-2.19-.45,35.41,35.41,0,0,1-3.58-5.1c-1.9-3.3-3.62-6.7-5.43-10.05a10.62,10.62,0,0,1-.82-1.24c-.48-1.27.31-2.2,1.66-2a6.59,6.59,0,0,1,4.49,2.79,50.16,50.16,0,0,1,3.27,5.69c1.06,2.15,2,4.39,2.9,6.6A23.13,23.13,0,0,1,1893.41,128.81Z"/><path d="M998.39,80.32a2.22,2.22,0,0,1,3-1.71,16.28,16.28,0,0,1,5.71,3c2,1.89,3.48,4.38,5.13,6.65a12.27,12.27,0,0,1,1.15,2.11,2.48,2.48,0,0,1-.78,3c-.84.83-1.61.38-2.46,0-1.49-.71-2.8-1.46-3.17-3.31a5.12,5.12,0,0,0-1.31-2c-1.08-1.31-2.19-2.6-3.34-3.84S1000,81.88,998.39,80.32Z"/><path d="M251.24,91c1.08-2.8,2.92-3.38,5.23-1.32,2.56,2.28,5.54,4.4,5.56,8.46,0,.72.7,1.41,1,2.15.49,1.18.93,2.38,1.36,3.52-3,1.9-4.14,1.64-5.35-1.17-1.15-2.65-2.13-5.38-3.27-8A4,4,0,0,0,254.5,93C253.46,92.25,252.32,91.64,251.24,91Z"/><path d="M263,80.63c3.92-1.92,4.92-1.78,7.86.83,1,.93,2.22,1.72,3.32,2.59a6,6,0,0,1,2.46,4c.21,1.84-.31,2.7-1.93,3.23s-3,.21-3.5-1.41a13.13,13.13,0,0,0-7.61-8.28C263.31,81.46,263.19,81,263,80.63Z"/><path d="M1011.7,71.08a10.37,10.37,0,0,1,6.47,2.48,47,47,0,0,1,4.22,4.25c1.4,1.5,1.36,2.71,0,4.15a2.5,2.5,0,0,1-3.94,0c-1.46-1.48-2.86-3-4.22-4.62A8.39,8.39,0,0,1,1011.7,71.08Z"/><path d="M1574.29,115.83c-.07-2,1.19-2.86,2.63-1.94a22.18,22.18,0,0,1,4.61,3.79,19.71,19.71,0,0,1,2.42,4.14,1.75,1.75,0,0,1-.74,2.57c-1,.53-2.1,1-3.06,0a10.06,10.06,0,0,1-1.6-2.17,12,12,0,0,0-3.09-4C1574.71,117.7,1574.53,116.37,1574.29,115.83Z"/><path d="M197.53,47.57c-.23-.35-.48-.57-.47-.77s.32-.35.49-.53c.17.21.43.4.46.62S197.75,47.27,197.53,47.57Z"/><path class="cls-1" d="M539.23,67.65c.15.36.36.63.29.78s-.37.28-.6.35c0,0-.27-.31-.24-.41A3.61,3.61,0,0,1,539.23,67.65Z"/><path class="cls-1" d="M1225.33,58.79l1.32-.47c.06.24.11.49.16.74l-1.36.26Z"/></g></g></svg>