<svg xmlns="http://www.w3.org/2000/svg" viewBox="0 0 1932.7 146.33"><title>アセット 4</title><g id="レイヤー_2" data-name="レイヤー 2"><g id="レイヤー_1-2" data-name="レイヤー 1"><path d="M879.1,90.66c-1.9,1.79-3.31,3.17-4.79,4.49a49.77,49.77,0,0,1-5.69,4.81,70.18,70.18,0,0,1-9,4.84,13.35,13.35,0,0,1-4.43.65,4.07,4.07,0,0,1-4-2.14,28.56,28.56,0,0,1-2.54-5.4C847,92.65,845.49,87.35,844,82a33.35,33.35,0,0,1-.75-4.7c-.27-2.08-1.83-3-3.34-1.58-2.71,2.52-5.61,5-7.57,8.1C828.43,90,825,96.49,821.55,102.91a36.72,36.72,0,0,0-1.93,5.33l-3.3,9.35a5,5,0,0,1-.35.83c-1,1.68-2.33,2.32-3.71,1.76-1.55-.62-2.06-2.08-1.8-3.93.69-4.87,1.38-9.75,1.79-14.65.34-4,.29-8,.4-12,.09-3.1.05-6.22.27-9.32.21-2.88.65-5.74,1-8.61.14-1,1.38-1.6,2.93-1.44s2.41.86,2.37,2.15c-.12,3.52-.25,7-.45,10.55-.22,3.8-.56,7.6-.77,11.4a3.85,3.85,0,0,0,.82,2.23c1.37-3,3.73-5.13,5-8.14,1.41-3.38,3.85-6.31,5.58-9.57s4.45-5.14,7-7.32A15,15,0,0,1,841.88,69c2.52-.76,4.71.73,5.56,3.33.65,2,1.52,3.94,2,6,.67,2.61,1,5.29,1.63,7.91.37,1.65.93,3.25,1.4,4.87.59,2,1.22,4,1.75,6.07.68,2.64.89,2.67,3.46,2.49,2.86-.2,5.07-1.57,7.36-3.09,4.17-2.77,8.41-5.45,12.75-8a3.76,3.76,0,0,0,2.09-3.33c.19-2.51.53-5,.61-7.51a7.14,7.14,0,0,0-.73-2.8c-.53-1.35-1.24-2.6.73-3.49.46-.21.79-1.18.81-1.81.07-2,0-4-.09-6a5.33,5.33,0,0,1,1.53-4.38,2.62,2.62,0,0,1,3.31-.53,3.81,3.81,0,0,1,1.28,2.47,15.49,15.49,0,0,1-.31,3c-.07,1.59,0,3.18-.07,4.77-.08,2.1-.22,4.2-.3,6.3a2.82,2.82,0,0,0,.65,1.92c.51-.63,1-1.26,1.53-1.9,1.72-2.22,3.29-4.56,5.18-6.63a13.94,13.94,0,0,1,7.07-3.77c2.12-.56,4.25-1.13,6.4-1.57,3.26-.67,4.93.28,5.88,3.51a28,28,0,0,1,1,5.6c.66,8.62,1.25,17.23,3.43,25.64.9,3.5,1.46,4,5,3.76,3.21-.22,6.4-.63,9.6-1s5.55-2.2,8.19-3.6c1.84-1,3.6-2.14,5.51-3,2.13-.93,3.48-2,3.25-4.69A9.86,9.86,0,0,1,951.14,83a15.43,15.43,0,0,0,1.23-3.34c1.8-4.6,5.37-7.65,9.21-10.44a37.71,37.71,0,0,1,11.69-5.45c1.26-.37,2.74,0,4.11.07.37,0,.71.42,1.09.5,4.17.85,5.83,4,6.81,7.62s.73,6.86-1.58,10a25.72,25.72,0,0,1-11.37,8.53c-4.36,1.82-8.87,2.11-13.44,2.28-2.84.09-4,1.33-2.95,3.74a45.15,45.15,0,0,0,7.21,12.37,6.76,6.76,0,0,0,7.65,2,27.05,27.05,0,0,0,10.83-6.2,65.8,65.8,0,0,1,9.75-7.45,24.77,24.77,0,0,1,5.55-2.3,1.45,1.45,0,0,1,1.32.36,1.84,1.84,0,0,1,.2,1.62,13.62,13.62,0,0,1-2.55,2.9c-3.53,2.8-7.25,5.36-10.67,8.27-2.69,2.27-5.28,4.56-8.51,6.08-6.59,3.11-10.2,3-16.1-.75-3.78-2.41-5.89-5.92-7.53-9.88-.92-2.2-2-4.35-3.09-6.83-1.47.71-2.66,1.17-3.74,1.82-2.39,1.42-4.76,2.89-7.06,4.44-2.83,1.92-6.17,2.26-9.3,3.28-2.54.84-5.14.59-7.65,1.18-5.41,1.28-10-3.74-10.52-8-.83-6.87-1.62-13.74-2.42-20.61-.37-3.15-.7-6.3-1.08-9.73-5.92.6-11.09,1.69-14,7.24a3.83,3.83,0,0,1-.8,1.26c-3.15,2.52-4.41,6.18-5.78,9.71a52.76,52.76,0,0,0-3.3,10.3c-.64,4-2.09,7.67-3,11.55a5.84,5.84,0,0,1-.67,1.66c-.74,1.27-2,1.25-3.21,1.08a2,2,0,0,1-1.64-2.23,14.44,14.44,0,0,1,.38-3.26c1-4.52,2-9,2.94-13.53A11.09,11.09,0,0,0,879.1,90.66Zm76.39-4c.57.36,1,.87,1.38.85,3.39-.21,6.92,0,10.12-.9,3.81-1.11,8.08-1.95,10.37-5.94.09-.16.35-.19.51-.32,3.24-2.65,2.84-8.55-.84-10.61a4.41,4.41,0,0,0-3.13-.44C966.45,71.6,960.49,75.82,957,83,956.48,84.1,956.08,85.23,955.49,86.65Z"/><path d="M1216.6,81.76c2.88.36,5.15-1.17,7.53-2,3.52-1.27,7-2.54,10.78-2.67,1.26,0,2.69-.18,3.29,1.59a7.62,7.62,0,0,1-4.35,3.36c-3.14,1-6.18,2.29-9.27,3.42-1.88.69-3.79,1.31-5.68,2-2.07.72-2.72,2-2.81,4.34-.29,7.67,1.19,15.24,1.15,22.85,0,5.06.85,10.23-.7,15.27-.46,1.5,0,3.3-.47,4.78a41.26,41.26,0,0,1-3.56,8.23c-1.56,2.56-4.48,3.54-7.32,3.44-6.88-.23-11.62-4.67-12.34-10.93-.37-3.21-.94-6.34.07-9.53a8.32,8.32,0,0,0,.22-2.69,41.33,41.33,0,0,1,3.66-17.56c.75-1.75,1.36-3.55,2-5.35,1.49-4.32,4.63-7.44,7.77-10.54,1.79-1.76,3.73-3.41,3.92-6.18a2.41,2.41,0,0,0,0-.6,4.47,4.47,0,0,0-.32-.7c-1.11.17-1.55,1-1.92,1.93-1.48,3.57-4.54,5.84-7.22,8.32-3,2.8-8.84.76-10.43-3.44a19.38,19.38,0,0,1-.75-3.51c-.17-.93-.29-1.87-.47-3.07a5.88,5.88,0,0,0-3.08,3.17c-1.69,3.19-4.25,5.6-6.83,8-3.08,2.83-6.23,5.63-9.57,8.14a13.53,13.53,0,0,1-5.46,2.35c-3.59.69-4.38,0-6.1-3.27A39,39,0,0,1,1154.72,90c-.63-3.25-1.69-6.41-2.55-9.61a13.08,13.08,0,0,1-.42-2c-.51-4.79-1-9.58-1.48-14.37-.22-2.09-.64-2.42-2.71-2a9.61,9.61,0,0,0-6.33,4c-4.81,6.49-7,13.68-8.28,21.52-.74,4.7-.84,9.37-1.15,14.06-.17,2.46-1,3.55-3,4-2.23.47-3.19-.3-3.16-2.69,0-3.32.27-6.64.22-10,0-2.3-.41-4.58-.63-6.87-.13-1.4-.32-2.79-.35-4.19a51.1,51.1,0,0,0-.76-9c-.68-3.49-.34-7.18-.42-10.78,0-2,.36-4-2.14-5.07-1.17-.53-.52-2.43,1-3,3.41-1.33,5.68.18,6,3.91q.62,7.67,1.28,15.33a7.27,7.27,0,0,0,.33,1.3c1.48.1,1.6-.91,1.95-1.71a47.71,47.71,0,0,1,2.87-6.29,41.76,41.76,0,0,1,5.28-6.9c3.36-3.49,7.76-3.5,12.14-2.8,2.12.34,2.68,2.34,3,4.14a74.07,74.07,0,0,1,1.45,10.74A62.9,62.9,0,0,0,1159,84.48q1.4,6,3.2,11.9c.7,2.32,2.08,2.61,4.07,1.21s4.28-3,6.41-4.44A9.63,9.63,0,0,0,1174,92c3.31-3.48,6.56-7,9.93-10.45a38.38,38.38,0,0,1,4.39-3.62,6.39,6.39,0,0,0,2.32-4,67.07,67.07,0,0,1,3.11-10.65c1.9-4.58,4.58-8.69,9.45-10.8,6.4-2.79,9-.32,11.48,3.9a40.68,40.68,0,0,1,2.9,4.88,8,8,0,0,1,.42,4.3,63,63,0,0,0-1.57,14.35C1216.46,80.46,1216.54,81,1216.6,81.76Zm-6.7,12.51c-4.28,2.78-5.82,7.19-7.82,11.27a16.18,16.18,0,0,0-1.49,3.89c-1,4.92-2.72,9.71-2.32,14.84a7,7,0,0,1-.39,2.67c-1.15,3.58-.26,7,.88,10.32a6.06,6.06,0,0,0,4.85,4.11c2.28.36,3.79-1.2,4.93-2.9a12.57,12.57,0,0,0,2.32-6.44c.2-4.1.35-8.2.52-12.29,0-1.31.12-2.61.12-3.91,0-1.8,0-3.6-.08-5.39-.31-4.89-1.57-9.72-.87-14.68C1210.61,95.31,1210.14,94.78,1209.9,94.27ZM1195,82.56a20.4,20.4,0,0,0,.25,3c.7,3,3.1,3.66,5.4,1.59a2.77,2.77,0,0,0,.6-.68c1.46-2.59,3.67-4.67,4.69-7.61,1.45-4.15,3.16-8.22,5-12.22,1.41-3.1.63-5.67-1.33-8.09-1.52-1.86-2.83-2-4.65-.51s-3.51,3.3-5.22,5a2.42,2.42,0,0,0-.57,1c-1.07,4.18-2.18,8.35-3.15,12.54C1195.54,78.63,1195.32,80.74,1195,82.56Z"/><path d="M1796.85,78.33c.5-1,1.05-2.08,1.5-3.15,1.56-3.69,2.72-7.62,4.74-11.05,1.78-3,3.81-6.09,7.11-8,2.4-1.36,4.9-1.13,7.34-.69,2,.35,2.66,2.43,3.24,4.07a66.39,66.39,0,0,1,1.87,7.57c1.72,7.72,2.9,15.58,5.93,23,.57,1.37,1.3,2.67,1.9,3.87a3,3,0,0,0,3.33-1.4,8.77,8.77,0,0,1,4.8-3.41,7.56,7.56,0,0,0,3-2.39c1.86-2.21,3.42-4.7,5.37-6.83a102.27,102.27,0,0,1,7.74-7.56,7.53,7.53,0,0,0,2.54-5.23c.51-4.78,1.14-9.55,1.82-14.3a11.85,11.85,0,0,1,3.68-6.78c2.54-2.53,5.67-2.69,8.32-.21,1.9,1.78,3.6,3.76,5.56,5.82a8.54,8.54,0,0,0,1.59-.95c1.27-1.17,2.55-.87,3.91-.26s1.43,1.87,1.41,3.07c-.08,3.93-.41,7.86-.28,11.77a76.7,76.7,0,0,0,1.14,8.43c2.42.58,3.52-1.08,5-1.73,2.3-1,4.6-1.94,7-2.75.42-.14,1.11.51,1.67.79a4.65,4.65,0,0,1-.83,1.41c-3.33,2.73-6.66,5.44-10.08,8.06-2,1.52-1.79,3.5-1.35,5.48,1,4.31,2,8.59,3.09,12.87,1,4.09,2.07,8.16,3.05,12.24,1.65,6.88,2.65,13.85,1.89,20.9a14.73,14.73,0,0,1-2.73,6.9c-2,2.65-3.94,5.44-7.79,6.15a11,11,0,0,1-10-2.7c-3.65-3.26-5.74-7.42-7.14-12a12.68,12.68,0,0,0-.65-1.68c-2.14-4.33-2.67-9-2.65-13.73,0-4.51,0-9.09,1.59-13.43,1.47-3.92,2.93-7.75,5.63-11.21a104.12,104.12,0,0,1,7.21-8,5,5,0,0,0,1.55-4.84c-.23-1.16-.54-2.31-.93-3.94l-3.7,2a30.26,30.26,0,0,1-.06,5.16,5.76,5.76,0,0,1-2.84,4.08,10.45,10.45,0,0,0-2,1.82c-2.9,2.94-6.71,2.69-8.74-.91-1.19-2.13-1.65-4.66-2.42-7-.24-.73-.39-1.48-.74-2.81-1.23,1.08-2.31,1.69-2.89,2.61a62.32,62.32,0,0,1-7.75,10.29c-3.68,3.83-7.52,7.5-11.3,11.24a3.59,3.59,0,0,1-.49.35c-4.18,2.91-6.8,2.14-8.53-2.2-1.85-4.67-4-9.23-5.56-14-1.29-4-1.9-8.2-2.79-12.32-.6-2.74-1.1-5.49-1.77-8.21-.54-2.16-1.14-2.37-3.26-1.63-3.14,1.1-4.63,3.82-6,6.43a67.79,67.79,0,0,0-6.47,17.47c-.59,2.73-.8,5.54-1.21,8.31a15.33,15.33,0,0,1-.54,2.63c-.35,1.08-.94,2.19-2.31,1.91s-2.66-.45-3-2.07c-.15-.69-.39-1.36-.5-2-1-6.25-2-12.5-3-18.75-.6-3.65-1.22-7.31-1.92-10.94-.21-1.07-.84-2-1.1-3.1a14.84,14.84,0,0,1-.64-4.09,2.61,2.61,0,0,1,2.39-2.36c1.21-.22,1.76.56,2.3,1.52a13.78,13.78,0,0,1,1.7,5.06c.6,4.79,1.42,9.54,2.26,14.29a16.48,16.48,0,0,0,1.25,3.19ZM1880.34,140a27.69,27.69,0,0,0,3.74-2.28c3-2.51,3.75-6.21,4.08-9.73.48-5.32-.75-10.6-1.59-15.86-1.22-7.63-4.37-14.81-5.18-22.52a4.64,4.64,0,0,0-.48-1.43c-.66-1.37-1.5-1.45-2.49-.24s-2.21,2.61-3.2,4c-2.07,2.92-4.52,5.68-5.36,9.25-1.45,6.18-2.48,12.39-1.09,18.78,1.11,5.1,1.86,10.25,5,14.68A14.34,14.34,0,0,0,1880.34,140Zm-4.67-81.77c-2.35-2.37-4.31-4.34-6.25-6.33-.83-.84-1.5-2-3-1.21-1.78,4.11-3.9,8.11-3.74,12.82.06,1.8-.23,3.61-.25,5.41A29.93,29.93,0,0,0,1864,80.15c.84,2.18,2.33,2.49,3.83.69,1.63-2,3.25-4,3.49-6.79a34.78,34.78,0,0,1,1.47-6.72C1873.68,64.16,1874.75,61,1875.67,58.19Z"/><path d="M25.5,40.87l-2.12-1.6c.46-.54.84-1.36,1.18-1.35,3,.1,3.84-2.06,4.83-4.17.68-1.45,1.47-2.84,2.15-4.29.2-.43.43-1.13.23-1.42-1.74-2.54.23-4.56.88-6.74.37-1.22,1-2.35,1.41-3.56a7.21,7.21,0,0,1,6-4.53c5.1-.11,5.1-.11,5.33,5.11,2.45-.18,4.92-.25,7.36-.55a24.82,24.82,0,0,1,10.34,1.17,44.79,44.79,0,0,1,13.38,6.69c3.8,2.67,5.14,6.59,5.21,11a31.37,31.37,0,0,1-1,6.54,5.69,5.69,0,0,1-1,2.14,28.81,28.81,0,0,1-7.47,7.34c-1.58,1-2.87,2.5-4.45,3.54-4.12,2.72-8.41,5.12-13.32,6.17-.25,0-.44.35-.75.62,1.6,2.05,4.14,2.46,6.12,3.75,4.44,2.91,9.08,5.58,11.63,10.59,1.11,2.17,1.58,4.27.56,6.63-.67,1.56-1,3.28-1.57,4.87a71.42,71.42,0,0,1-3.23,7.77,19.65,19.65,0,0,1-8.54,8.21,72.71,72.71,0,0,1-16.36,6,113.31,113.31,0,0,1-11.7,2.73,113.14,113.14,0,0,1-13.77,1,13,13,0,0,1-5.15-1.39C9.17,111.94,9,112,7.76,114.33A23.48,23.48,0,0,1,5.23,118c-1,1.19-2.33,1.09-3.62.71a2,2,0,0,1-1.55-2.54,3.12,3.12,0,0,1,.25-.87c2.51-5,2.61-10.67,4.58-15.78,2.3-6,3.33-12.41,6.51-18.12,1.29-2.31,1.56-5.18,2.4-7.76C15,70,16.29,66.45,17.48,62.84c.56-1.7.84-3.5,1.48-5.16,2-5.24,4.17-10.44,6.26-15.65A11.12,11.12,0,0,0,25.5,40.87Zm-16.24,67c4.15.17,7.74.43,11.33.45a42.05,42.05,0,0,0,6.61-.58c2.55-.39,5.06-1,7.59-1.53,2.07-.4,4.18-.6,6.23-1.08A64.87,64.87,0,0,0,48.53,103a49.49,49.49,0,0,0,9.34-4c3.1-2,4.83-5.2,5.64-8.83.44-1.94.23-4,1.64-5.72.22-.27,0-1-.06-1.41-1.14-4.65-4.75-7.75-7.84-10.81-4.08-4.06-9.6-4.6-15.18-2.71-.62.22-1.53.48-2,.2-2.9-1.85-5.9-1.59-9-.87a6.13,6.13,0,0,1-2.69-.12,2.7,2.7,0,0,1-1.76-4c.16-.35.33-.7.5-1C25,62.51,24.54,62.48,24,64c-1.56,4.73-4.61,8.93-4.91,14.11a9.53,9.53,0,0,1-1,3.12C16.56,84.74,14.7,88.1,14,91.91a34.88,34.88,0,0,1-2.64,8.28C10.38,102.41,10,104.94,9.26,107.83ZM25.52,60.05c3.42,1.89,3.72,2.09,6,1.81a76.1,76.1,0,0,0,11.33-1.73c6-1.68,12-3.32,17.43-6.49,2.26-1.32,4.45-2.76,6.81-3.87,4.1-1.94,6.56-5.3,8.1-9.32A8.89,8.89,0,0,0,74,31.55a21.2,21.2,0,0,0-13.43-8c-4.51-.71-9.18-.45-13.66-.61l-2,4.2c-4.62-.3-5.21-.07-6.9,3.64C35.38,36.6,31.85,42,29.82,48.17c-1,3-2.46,5.92-3.63,8.9A19.48,19.48,0,0,0,25.52,60.05ZM42.85,25c.9-1.14,2.09-1.57,2.15-3C42,22.66,42,22.66,42.85,25Zm9.37,41.56c-1.78-1-1.78-1-2.82,0Z"/><path d="M518.12,99a12.49,12.49,0,0,1,2,.9,1.49,1.49,0,0,1,.5,2.32c-1.3,1.77-2.68,3.49-3.91,5.3a23.65,23.65,0,0,0-2,3.65c-1.1,2.51-2.78,3.21-4.89,1.58a2.5,2.5,0,0,0-2.75-.41c-2.71,1-5.39,2.14-8.09,3.21-1.77.7-3.51,1.5-5.33,2-3.49,1-6.35-.71-6.85-4.33a42.93,42.93,0,0,1-.3-7.77c.17-3.69-.18-7.46,1.17-11a5,5,0,0,0,0-1.56c-3.58.72-5.59,3.4-8,5.43A112.52,112.52,0,0,1,462,110.77c-3.66,2.07-6.16.82-7.08-3.27-.75-3.32-1.67-6.61-1.35-10.06.15-1.69.37-3.37.58-5a12.16,12.16,0,0,0,.29-2.06c-.06-1.89-.24-3.79-.35-5.68a18.32,18.32,0,0,0-.09-2.11c-.34-1.81-1.48-2.5-3-1.44-3.52,2.45-7.25,4.66-9.78,8.33s-5.38,7.24-7.92,11a10.52,10.52,0,0,0-1.91,4.65c-.22,2.33-1.32,4.17-2.28,6.15a32.83,32.83,0,0,0-1.53,3.61,3.4,3.4,0,0,1-2.56,2.3c-2.66.67-4.23-.74-3.64-3.41s1.31-5.47,2.05-8.18,1.74-5.37,2.34-8.12c.87-4,1.48-8.09,2.21-12.14.26-1.48.52-3,.8-4.44.36-1.87,1.08-3.74-.37-5.49a1.31,1.31,0,0,1-.17-.86c.18-1.91,1.79-2.6,3.14-3.39a2.72,2.72,0,0,1,3.53.84,4,4,0,0,1,.35,2.78c-.79,5.25-1.69,10.49-2.53,15.74,0,.16.14.35.29.7a4.66,4.66,0,0,0,3-2.61c3.09-5.4,8.13-8.8,12.85-12.51,2.15-1.69,4.86-1.82,7.48-1.91,1.6,0,3.41,1.77,3.53,3.92a34.88,34.88,0,0,1-.3,8.67c-.94,4.77-.81,13.55.85,18,.45-.05,1,0,1.38-.19,2.55-1.86,5.74-2.77,7.8-5.35a6.61,6.61,0,0,1,1.45-1.06c2.55-1.77,5.07-3.6,7.68-5.31,3.17-2.09,6.42-4.07,9.64-6.1.5-.32,1.23-.49,1.51-.94,3.07-5,7.7-8.28,12.29-11.64,3.65-2.68,7.92-1.9,10.44,1.89l2.84,4.3a8.27,8.27,0,0,0,1.08-1.85C518,72,519.77,65.55,520.74,59a132.26,132.26,0,0,1,3.47-14.29c1.6-6,3.67-11.9,5.51-17.84,2.08-6.7,4.12-13.41,6.22-20.11a3.58,3.58,0,0,0-.67-3.08c-1.07-1.93-.46-3,1.7-3.33,1.09-.14,2.19-.3,3.29-.36,1.69-.1,2.84,1,2.39,2.62-1.56,5.59-3.25,11.14-4.95,16.7-1,3.35-2.16,6.68-3.24,10-1.14,3.53-2.41,7-3.39,10.62q-2.85,10.45-5.4,21C524.31,66.61,523.18,72.32,522,78c-1,4.61-1.85,9.24-2.82,13.85-.26,1.26-.8,2.48-1,3.75A21.63,21.63,0,0,0,518.12,99Zm-11.89,9.46c.53-.74,1-2,1.95-2.58a4.93,4.93,0,0,0,1.94-2.88c2-4.93,1.7-10.06,1.05-15.13a17.82,17.82,0,0,0-2.72-8.19c-1-1.46-2-1.75-3.49-.75a7.07,7.07,0,0,0-1.16,1c-2.21,2.3-4.43,4.58-6.57,6.93-2.47,2.71-4.44,5.68-4.57,9.53,0,.79-.25,1.58-.31,2.38-.28,3.69-.66,7.38-.75,11.07-.05,2.2,1.71,3.09,3.46,1.74,2.31-1.78,5.07-2.32,7.68-3.23C503.63,108,504.76,108.32,506.23,108.41Z"/><path d="M1594.44,86.41c2-.25,1.9-1.52,2-2.73a58.71,58.71,0,0,1,2.47-14.19c1-3.33,1.17-6.9,3.14-10,1.25-1.94,2.4-3.84,4.94-3.81a5.41,5.41,0,0,1,5.17,4c1.3,3.68,2.46,7.42,3.61,11.15.85,2.78,1.58,5.59,2.35,8.39.93,3.37,1.83,6.75,2.77,10.12.28,1,.63,1.91,1,2.85,1.44,3.62,4.48,4.95,8.21,3.85s7.58-2,11.35-3a33.64,33.64,0,0,0,3.48-1.37c-1.3-2.92-2.09-5.77-4.86-7.58-1.7-1.11-1.54-2-.51-3.83a12.45,12.45,0,0,0,1.34-3.59,35.34,35.34,0,0,1,2.55-8.94,16.2,16.2,0,0,1,14.75-9.1c3.86.15,8.07,3.21,8.81,6.47a3.75,3.75,0,0,1,.07,2c-2,5.14-4.87,9.51-9.66,12.71a44.16,44.16,0,0,1-9.28,4.68,4.62,4.62,0,0,0-.83.61,9.34,9.34,0,0,0,2.81,5.41c.47.49,1.27,1,1.32,1.5.3,2.88,2.58,4.27,4.44,5.84,2.36,2,5.44,1.35,8.56-1,1.5-1.13,2.57-2.76,4.67-3.06.55-.08,1-.88,1.47-1.4,1.92-2.19,3.78-4.42,5.73-6.58a6.67,6.67,0,0,1,8.06-1.38c-.32.38-.55,1-.9,1-2.89.67-4.42,2.9-6.11,5-2.1,2.65-4.06,5.33-6.93,7.41-2.22,1.61-4.14,3.65-6.69,4.92-4.2,2.08-8.3,1.59-11.6-1.69-1.5-1.48-2.89-3.08-4.32-4.64-1.61-1.75-2.28-2-4.13-.89-3.89,2.46-8.28,3.59-12.51,5.17-6.48,2.43-12-.58-14.1-6.78a115.88,115.88,0,0,1-5.56-22.45,11.27,11.27,0,0,0-1.08-3.42,18.23,18.23,0,0,1-1.92-6.26c-.12-1.47-1.29-1.8-2.34-.8a4.75,4.75,0,0,0-1.14,1.73,35.93,35.93,0,0,0-2.55,9.26c-.23,2.58-1,5.12-1.38,7.7s-.53,5.19-1,7.76c-.65,3.75-1.5,7.46-2.2,11.2-.19,1-.66,1.81-1.69,1.76a4.82,4.82,0,0,1-2.68-.85,4.94,4.94,0,0,1-1.23-2.37c-1.92-6.54-4.19-13-5-19.82a15,15,0,0,0-2.77-7.28,11.57,11.57,0,0,0-4.82,6.58,125.07,125.07,0,0,0-3,13.5c-.27,1.68.56,3.52.78,5.3.37,2.87.72,5.75.93,8.64a2.64,2.64,0,1,1-5.27.38c-.54-3-1-6-1.41-8.93-1.28-9.15-2.53-18.3-3.84-27.44a6.68,6.68,0,0,0-.92-2.46c-1.06-1.73-1.06-2.2.47-3.51a10.87,10.87,0,0,1,1.23-.87c1.73-1.12,2.51-.94,3.06,1,.87,3.08,2.15,6.06,1.87,9.4a20.07,20.07,0,0,0,.4,3.74l.62.12c.36-.51.75-1,1.06-1.53,1.08-1.79,2.11-3.62,3.2-5.4.46-.76,1.09-1.43,1.56-2.18a5.72,5.72,0,0,1,5.38-2.67c2.21.05,3,1.71,3.61,3.5,1,3.25,2.36,6.37,2.82,9.81C1592.7,80.2,1593.67,83.19,1594.44,86.41Zm51.14-7.36c.55.11.76.22.93.18a23.47,23.47,0,0,0,12.63-8.15,10.57,10.57,0,0,0,1.59-2.55c1.2-2.84-.31-5.1-3.39-5a11.32,11.32,0,0,0-6.12,2.27c-2.41,1.61-2.72,4.37-3.92,6.6A11.62,11.62,0,0,0,1645.58,79.05Z"/><path d="M767.8,98.55a40.56,40.56,0,0,1,2.87-17.47c.81-2.15,1.54-4.33,2.45-6.43,3.31-7.62,12.76-10.22,19-7.56a10.73,10.73,0,0,1,4,3c4.71,5.89,7.26,12.6,5.89,20.18a51.66,51.66,0,0,1-3.74,12c-1.6,3.51-4.23,6.34-8.83,6.08-1.75-.1-3.54.6-5.31.61-4.62,0-8.35-2.59-12.31-4.46a4.85,4.85,0,0,1-1.28-1.24c-1.71-1.93-3-2.27-4.79-.71a53.4,53.4,0,0,0-6.07,6.24c-1.64,2-2.82,4.39-4.39,6.46a39.87,39.87,0,0,1-3.4,3.35,16.58,16.58,0,0,1-5.61,4.22c-2.58,1-5.09,2.62-8,.9-5.82-.37-8.41-4.79-10.68-9.09a47.78,47.78,0,0,1-5.72-25.26c.3-5.1,1.11-10.26,3.52-14.84,1.26-2.4,2.47-5,4.84-6.74a15.17,15.17,0,0,0,2.6-2.87c1.93-2.4,4.81-3.14,7.43-4.34,3.16-1.46,6.11-.85,8.82,1a23.88,23.88,0,0,1,5.52,4.59c2.27,2.91,3.72,6.21,1.12,9.88-.49.68-.44,1.73-.72,2.59a1.87,1.87,0,0,1-2,1.47c-1.13-.06-1.62-.94-1-1.87a5.29,5.29,0,0,1,.61-.65c1.74-2,1.71-2.83.49-5-1.57-2.83-4-4.7-6.56-6.49a4.64,4.64,0,0,0-5.41-.23C733.65,71,728.4,77.52,728,87c-.13,3.11-.07,6.23-.08,9.34a5,5,0,0,0,.11,1.5c1.28,4.33,2.57,8.65,3.92,13,1,3.24,3.78,5.15,6.08,7.33,1.52,1.42,4.1.94,5.86-.38,1.59-1.19,3.31-2.23,5-3.35a19.37,19.37,0,0,0,6.26-7.15,22.64,22.64,0,0,1,2.84-3.76c.38-.45,1-.66,1.42-1.1A10.52,10.52,0,0,1,767.8,98.55Zm17.12,5c6.72.07,8.64-1.9,10.61-7.34,2.54-7,2.3-14.17-2.26-20.73a8.87,8.87,0,0,0-10.53-3.19c-3.94,1.74-5.81,5.15-6.91,9a74.43,74.43,0,0,0-2.44,11.11,16.51,16.51,0,0,0,.91,6.16c.22.83,1.2,1.55,2,2.11s2,1,2.89,1.53A9.06,9.06,0,0,0,784.92,103.6Z"/><path d="M1767.73,60.4c3-2.49,5.65-1.73,6.54,1.7.5,1.94.61,4,1,5.95.56,2.94,1.21,5.87,1.82,8.8.16.79.29,1.58.46,2.37.72,3.43,1.51,6.85,2.16,10.3.4,2.15.63,4.34.88,6.52.12,1.12-.22,2-1.54,2.13s-1.5-.82-1.89-1.85c-1.58-4.16-3.33-8.26-5-12.37,0-.06-.18-.08-.61-.26a50.4,50.4,0,0,0-6.28,6.43,14.86,14.86,0,0,1-11.28,6c-2.51.15-4.37-1.41-5.41-3.7-2-4.46-4.11-8.91-5.92-13.47-1.58-4-2.75-8.12-4.26-12.13a12.53,12.53,0,0,0-2.16-2.83,13.22,13.22,0,0,0-5.12,6.84,43.3,43.3,0,0,0-2.58,19.24,72.71,72.71,0,0,1-.1,8.73c-.05,1.39-.6,2.57-2.22,2.79s-2.42-.73-2.81-2.13a13.29,13.29,0,0,1-.53-2.64c-.35-5.09-.61-10.19-1-15.29a30.65,30.65,0,0,0-.88-3.8,133.33,133.33,0,0,1-2.22-19.11c-.11-1.69-.83-3.32-1.06-5-.32-2.39-.44-4.8-.63-7.2-.64-7.8-1.26-15.61-1.93-23.41-.16-1.87-.49-3.72-.8-5.94a7.54,7.54,0,0,1,1.34-.83c2.54-1.05,3.29-.67,3.68,2s.64,5.19.94,7.79c.54,4.88,1.1,9.76,1.6,14.64q.87,8.37,1.62,16.76c.29,3.2.43,6.42.73,9.62A34,34,0,0,0,1725,71c1.72-.86,1.59-2.27,1.77-3.3.82-4.77,4.42-7,8.12-9.09,1.68-.94,3.74-.14,5,1.44a24.24,24.24,0,0,1,4.9,9.93c1.64,6.82,4.94,12.92,7.76,19.24a1.87,1.87,0,0,0,2.39,1.26,7.8,7.8,0,0,0,2.76-1.1c2.38-1.79,4.61-3.76,7-5.59a34.15,34.15,0,0,1,3.94-2.73c3.06-1.77,3.06-1.83,2.61-5.18-.51-3.77-1-7.55-1.19-11.35C1770,62.65,1769,61.65,1767.73,60.4Z"/><path d="M634.05,68c4.1.21,5.36,2.28,3.42,5.82-3.45,6.32-6.94,12.62-10.38,19-2,3.71-3.87,7.49-6,11.15a23.44,23.44,0,0,1-8.11,8.33c-2,1.23-3.23,1-4.68-.86l-2.2-2.77c1-4.27-1.25-8.19-2.26-12.35a17.39,17.39,0,0,1-.71-6.81,12.33,12.33,0,0,0-.11-6c-.27-.79.29-1.87.5-3-1.11-.55-1.63-.31-2.13,1-2.07,5.21-2.08,11-4.67,16.07a9.29,9.29,0,0,0-.53,2.34c-.92,4.41-1.81,8.83-2.79,13.24a4,4,0,0,1-2.89,2.83,2.32,2.32,0,0,1-3.11-1.07,8.67,8.67,0,0,1-1.09-2.79c-.77-4.76-1.46-9.52-2.13-14.29s-1-9.37-2-14c-.56-2.62-1.63-5.1-1.37-7.89,0-.54-.63-1.18-1-1.74a2.59,2.59,0,0,1,.68-3.87c1.55-1,2.56-1,3.57.6a10.86,10.86,0,0,1,1.68,3.52c1,5,1.84,10,2.67,15.09.53,3.17.92,6.35,1.43,9.52a7.51,7.51,0,0,0,.8,1.68,3.57,3.57,0,0,0,1-3.78,3.69,3.69,0,0,1,.57-3.4,2.45,2.45,0,0,0,.53-1.07c1.11-6.44,3.7-12.42,5.78-18.55a9.76,9.76,0,0,1,2-3.32,5.35,5.35,0,0,1,2.55-1.44c1.68-.42,2.69.31,3.15,2a6.58,6.58,0,0,1,.13.89c.56,4.15,1.67,8.31,1.54,12.43-.18,5.38,1.28,10.26,2.84,15.21a10.6,10.6,0,0,1,.51,2.66c.08,1.55.86,2.13,2.24,2,2-2.93,4.16-5.67,5.87-8.66,1.86-3.27,3.27-6.79,5-10.15,1.55-3,3.26-6,4.9-9Z"/><path d="M234.57,78c4.94-.88,5.58-.23,4.77,4.75a35.91,35.91,0,0,1-1,4.05,12.92,12.92,0,0,0-.63,6.14c.36,2.09-.39,4.36-.5,6.57a36.08,36.08,0,0,0,.13,5.4,2.24,2.24,0,0,0,2.75,2.29c.92-2.77,3.12-3.87,6-4,1.2,0,1.66-.77,2.1-1.8,1.08-2.46,2.34-4.86,3.55-7.26a3.68,3.68,0,0,1,.84-.83A46.34,46.34,0,0,0,256,90.08a13.31,13.31,0,0,1,5.84-4.1,2.31,2.31,0,0,1,.28,3.51c-2.38,3.11-4.8,6.2-7.28,9.23s-4.83,5.91-7.4,8.73c-2.16,2.38-4.47,4.64-6.85,6.8a4.68,4.68,0,0,1-7.83-2.39c-.68-2.92-.87-6-1.36-8.91-.12-.71-.45-1.79-.92-1.93a2.49,2.49,0,0,0-2,.83,39.64,39.64,0,0,1-5.7,5.74c-1.47,1.08-2.37,2.92-3.54,4.41a5.24,5.24,0,0,1-3.9,2,10.87,10.87,0,0,0-2.87.8c-3.15,1.19-6-.3-6.6-3.55-.71-3.71-.91-7.35.92-10.9A22.09,22.09,0,0,0,208,96c1.71-6.29,4.15-12.3,6.47-18.37,1.4-3.66,3.69-6.65,5.54-10a6.1,6.1,0,0,1,6.27-3.35,5.89,5.89,0,0,1,5.23,4.35C232.49,71.73,233.5,74.75,234.57,78Zm-12,26.41c.76-1.46,2-2.75,1.92-3.94a7,7,0,0,1,1.85-4.91c1.41-1.8,1.72-3.24.22-5.06,2.68-2.08,2.93-4.57,1.86-7.39a3.93,3.93,0,0,1-.2-2.06c.72-3.43-1-6.17-2.37-9.62-2.11,2.15-4,4-5.75,5.89A4.92,4.92,0,0,0,219,79.05c-2.51,7.61-5,15.22-7.41,22.87a30.1,30.1,0,0,0-.84,5.64c-.11,1-.11,2.11,1.13,2.5s2-.22,2.74-1.24A10.7,10.7,0,0,1,222.53,104.37Zm11.28-9.49.63.26.7-1.47-.5-.24Z"/><path d="M356,78.45c-.76,3.28-1.64,6.55-2.25,9.86-.9,4.94-1.41,10-2.47,14.84a40.54,40.54,0,0,1-3,7.54c-.54,1.23-1.42,2.28-3,2.1a3,3,0,0,1-2.9-2.6c-.13-.68-.73-1.34-.68-2,.37-4-1-7.77-2-11.48-1.39-5.19-1.21-10.81-4.06-15.62a3.49,3.49,0,0,1-.34-2.05,3.87,3.87,0,0,0-2.09-4.1c.3-.83.58-1.56.81-2.31.3-1,.47-2-.44-2.79a2.24,2.24,0,0,1-.13-3.46,3.09,3.09,0,0,1,4.12-.06A7.53,7.53,0,0,1,339.35,69a21.58,21.58,0,0,1,.61,3.26c1.12,4.88,2.29,9.74,3.4,14.63.66,2.93,1.22,5.89,1.88,8.82a17.8,17.8,0,0,0,.9,2.34c1.74-1.19,1.76-2.77,1.94-4.18.75-5.88,1.44-11.77,2.11-17.66.22-2,.31-4,.48-6,.23-2.83,2.81-3.22,4.67-4.07,1.57-.71,2.8.73,3.75,1.92,2,2.55,2.62,5.63,2.88,8.73.24,2.74.41,5.4,2,7.78a5.27,5.27,0,0,1,.48,2c.51,2.75,1,5.51,1.5,8.27a3.32,3.32,0,0,0,2.38,2.83,1.88,1.88,0,0,0,1.26-2.65c-.44-1.57.23-2.65,1.18-3.81a15.37,15.37,0,0,0,2.12-3.58c1.65-3.77,3.14-7.61,4.82-11.37a9.14,9.14,0,0,1,2.13-2.86,3.56,3.56,0,0,1,4.46,0c1,.77,1.55,1.85.68,2.87-3.56,4.13-4.92,9.38-7.32,14.09-1.37,2.68-2.41,5.52-3.66,8.26-1.32,2.92-2.73,5.8-4.07,8.72-.61,1.33-1.31,2.58-3,2.54a3.65,3.65,0,0,1-3.54-3.11q-2.07-8.76-4-17.55c-.6-2.74-1-5.52-1.64-8.25a13.16,13.16,0,0,0-1.22-2.62Z"/><path d="M116.27,67.83a13.11,13.11,0,0,1,11,5.66,5.48,5.48,0,0,1,.42,6,24.3,24.3,0,0,1-12.62,12.27c-4.31,1.92-8.55,4-12.82,6a9,9,0,0,1-6.17.78,2.49,2.49,0,0,0-3.3,1.79,16.89,16.89,0,0,0-1,3.45c-.5,3.52-.23,3.83,2.9,5.3A12.55,12.55,0,0,1,98,111.13c3.31,3.12,7,5,11.66,3.82a31.88,31.88,0,0,1,3.82-.4,2.87,2.87,0,0,0,1.12-.34c1.93-1.23,3.77-2.61,5.77-3.71,1.46-.8,3.17-1.15,4.68-1.88,1.7-.82,3.32-1.82,5-2.79,1.29-.77,2.5-1.69,3.83-2.39a1.37,1.37,0,0,1,1.93,1.77,13.59,13.59,0,0,1-2.31,3.11A27.41,27.41,0,0,1,129,112c-3.8,2.4-7.27,5.51-11.8,6.5-3.9.86-7.87,1.4-11.82,2.06-2.36.39-4.27-1-6.29-1.76A27.75,27.75,0,0,1,90,113.59C86.22,110.07,85.1,106,86.81,101c.79-2.27,1.3-4.63,2-6.93a15.14,15.14,0,0,1,1.39-3c.8-1.37,1.91-2.59,2.56-4a25.82,25.82,0,0,1,4.66-6.59c2.18-2.46,4-5.21,6.39-7.53C107.34,69.6,111.31,67.63,116.27,67.83ZM96.79,92.9c.51,0,.77.09.89,0,3.32-2.61,7.29-3.53,11.23-4.77,3-1,5.7-3.1,8.52-4.73.16-.09.24-.32.38-.46,1.18-1.19,2.35-2.39,3.56-3.55.7-.67,1.25-1.33.61-2.33a7.86,7.86,0,0,0-10.84-2.15c-4,2.74-7.16,6.36-10.43,9.88a9,9,0,0,0-1,1.49c-.71,1.18-1.34,2.43-2.13,3.55C96.93,90.74,96.3,91.59,96.79,92.9Z"/><path d="M1320,59.9a20.09,20.09,0,0,0,.19-2.85c-.57-7.21-1.11-14.42-1.82-21.62a62.72,62.72,0,0,0-1.38-6.7c-.23-1.12-.41-2.24.91-2.86a3.63,3.63,0,0,1,3.74,1.25c1.61,2.66,3.14,5.37,3.4,8.59q.84,10.35,1.74,20.69a15.93,15.93,0,0,0,.52,2.3h9.63a11.4,11.4,0,0,1,2.11.12c1.2.21,2.94,2,2.53,2.91a8.5,8.5,0,0,1-2.44,2.81c-.46.35-1.36.15-2.07.18l-8.87.34a24.5,24.5,0,0,0-.24,2.52c0,2.51.18,5,.18,7.52a111,111,0,0,0,2.07,18.52,87.86,87.86,0,0,1,.93,12.57c.09,3.8-.16,7.61-.34,11.41a18.37,18.37,0,0,1-.55,3.54,2.28,2.28,0,0,1-2.6,2c-1.62-.15-2.61-.88-2.73-2.64a82.55,82.55,0,0,1-.42-11.43,71,71,0,0,0-1-15c-.76-5.37-1.67-10.72-2.3-16.1-.29-2.48,0-5-.1-7.54-.14-3.35-2.9-4.92-6.09-3.6a28.84,28.84,0,0,1-4.55,1.58,3.24,3.24,0,0,1-4.25-3.34,2.33,2.33,0,0,1,1.69-2.54,16.49,16.49,0,0,1,1.71-.59C1312.94,61.25,1316.27,60.62,1320,59.9Z"/><path d="M1503.24,64.67a55.13,55.13,0,0,0,4-4.3c1.11-1.49.93-2.39-.5-3.65-1.72-1.52-3.55-2.92-5.34-4.36a1.93,1.93,0,0,0-.79-.41c-6.05-1.07-12.11-2.07-18.27-1.15-4.08.6-5.33,3.62-3,7a6.77,6.77,0,0,1,1.19,1.71c1,3.66,3.46,6.15,6.23,8.63,4.63,4.14,8.91,8.68,13.32,13.07,1.57,1.56,3.12,3.13,4.62,4.75,4.51,4.84,6.08,13.82,3.28,19.72-1.66,3.48-4.87,5.19-8.36,6.46-3,1.07-6,.32-9,.21-5.92-.22-10.34-3.49-14.43-7.32-2.08-1.94-2.56-4.51-2.34-7.2.15-1.78,1.3-2.71,2.75-2.52,1.7.23,3.25,2,2.76,3.56a2.73,2.73,0,0,0,1,3.17c2.3,2.14,4.75,4.08,8,4.57a55.68,55.68,0,0,0,7.5.73c3.8.05,8-3.82,8.5-7.56a6,6,0,0,0-.08-1.79,28.31,28.31,0,0,0-1-5,13.87,13.87,0,0,0-2.49-4.38c-4.35-4.85-9.26-9.13-14-13.56a110.29,110.29,0,0,1-9.15-10.15,48.08,48.08,0,0,1-3.25-5.07,10.23,10.23,0,0,1-1.34-5.46c-.19-5.61,4-8.29,8.79-8.68,3.5-.29,7-.09,10.57-.07,5.74,0,10.71,2.57,15.6,5.1,3.08,1.6,4.69,6.1,3.87,9.43-.53,2.17-2.22,3.55-3.92,4.78C1506.36,66,1504.82,65,1503.24,64.67Z"/><path d="M555.49,110c2.16-2,5.65-2.37,5.16-6.26a17.86,17.86,0,0,0-2.44,1.53,26.94,26.94,0,0,1-15,6.31c-5.47.68-8.89-2.28-11.58-6.09a4,4,0,0,1-.4-1.73c-.17-1.19-.2-2.41-.45-3.59a19.76,19.76,0,0,1,3.52-15.92c.92-1.31,1.84-2.64,2.74-4,3.2-4.73,7.83-7.65,12.89-10,4.8-2.2,9.09-.76,12.83,2.39,3.06,2.58,4.74,6.17,6.07,9.91,2.52,7.09,1.38,13.87-1.79,20.4a17.11,17.11,0,0,1-5.73,6.78C559.91,110.74,558.62,110.88,555.49,110Zm7-9.39c2.82-4.06,2.65-8.54,2.25-13.06a1.75,1.75,0,0,0-.38-.79c-1.29-1.73-2.62-3.44-3.87-5.2a8.13,8.13,0,0,1-1.1-2.13c-2.23-6.93-5.76-5.94-9.73-3.47a31,31,0,0,0-6,4.46c-2.19,2.29-4.71,4.38-5.83,7.56a23.33,23.33,0,0,0-1,13,5.28,5.28,0,0,0,1.87,3.2,9.9,9.9,0,0,0,9,1,15.11,15.11,0,0,1,2.56-.86c2.45-.49,3.68-2.42,5.27-4L553,97.74C557.37,96.05,559.71,99.18,562.53,100.62Z"/><path d="M1076.66,111.09c-1.72-1.46-2-3.26-2.16-5-.44-4.09-.82-8.19-1.18-12.29-.75-8.59-1.45-17.18-2.21-25.77-.14-1.59-.51-3.16-.67-4.75a1.69,1.69,0,0,0-2-1.7c-3,.34-6,.68-8.91,1.29-2.17.45-4.24,1.27-6.49.43-1-.39-2.21-.58-2.21-2.05s1-1.71,2.1-2.13a51.25,51.25,0,0,1,16.86-3.24c.87-3.53.08-6.87-.27-10.36l1.63-.73c-.52-1-1.42-2-1.35-2.88.15-2-1-4.33.55-6.13,1-1.26.84-2.08-.15-3.08-.7-.71-1-1.54-.19-2.37a1.67,1.67,0,0,1,2.64.15,4.3,4.3,0,0,1,1.31,1.88c.6,3.74,2.09,7.27,1.74,11.25-.3,3.35.34,6.79.61,10.18a12.09,12.09,0,0,0,.58,2,42.92,42.92,0,0,0,9.46-1.51,14,14,0,0,1,1.4-.55,2.78,2.78,0,0,1,3.24,1.58c.63,1.36-.06,2.37-1,3.16a4.37,4.37,0,0,1-1.92.8c-3.64.67-7.29,1.27-11.42,2,.15,2.66.27,5.72.51,8.77.45,5.8,1.1,11.59,1.44,17.4.33,5.51.48,11,.48,16.56a22.59,22.59,0,0,1-1.08,5.57C1077.79,110.07,1077.15,110.51,1076.66,111.09Z"/><path d="M1363.25,59.69c3.3,0,5.94,1.49,8.7,2.77a14.27,14.27,0,0,1,6.89,6,30.79,30.79,0,0,1,2.38,5.79c1.17,4,2.14,8,.74,12.1a23.56,23.56,0,0,1-5.08,8.74c-.75.81-1.4,1.38-.85,2.55.8,1.71-.1,2.88-1.37,3.87a14.57,14.57,0,0,1-11,3.18,29.77,29.77,0,0,1-12-3.72,15.91,15.91,0,0,1-6.42-7.37,55.73,55.73,0,0,1-3.1-10.63c-1.1-5,.73-9.35,3.56-13.24,2.28-3.14,4.76-6.34,8.61-7.71C1357.22,61,1360.27,60.44,1363.25,59.69Zm-.73,5.22c-1.34.3-2.69.58-4,.9-3.55.88-5.6,3.55-7.88,6.16-3.7,4.27-3.44,9-2.41,13.92a30.47,30.47,0,0,0,2.72,6.67c1.51,3.11,3.75,5.38,7.43,5.82.89.11,1.75.46,2.63.64,4.08.84,7.81.37,10.62-3.06a12.49,12.49,0,0,0,1.85-3c.9-2.12,1.61-4.32,2.44-6.48A12.73,12.73,0,0,0,1376,76.2c-.94-2.1-1.85-4.21-2.8-6.3a2.44,2.44,0,0,0-.71-1C1369.5,66.81,1366.52,64.74,1362.52,64.91Z"/><path d="M1049.25,90.77a6.2,6.2,0,0,1-2.4,8c-4.65,3.08-9.31,6.15-13.88,9.36a24.76,24.76,0,0,1-9.4,3.78c-7.41,1.61-15.07-4.76-16.49-11-.62-2.73-1.79-5.32-2.56-8a20.64,20.64,0,0,1-.13-11.91c.68-2.2,1.12-4.48,1.8-6.69a12.2,12.2,0,0,1,1.67-3.85,82.54,82.54,0,0,1,7.71-9.15c4-3.85,9.11-4.49,14.41-3.44a6.46,6.46,0,0,1,5.09,5.67,3.1,3.1,0,0,1-3,3.73c-.29,0-.6,0-.9,0-3.18.13-3.23.08-2.49-3a3.56,3.56,0,0,0-.09-1c-3.07-1.75-5.61-.07-8,1.42a18.69,18.69,0,0,0-3.49,3.29c-.76.8-1.27,1.85-2.08,2.57-3.46,3.12-4.09,7.38-5.07,11.59-1.53,6.62,1,12.49,3.11,18.42a13,13,0,0,0,3.32,4.52c2.94,2.88,6.38,1.63,9.65.66s5.9-3.28,8.8-5c1.78-1.08,3.64-2,5.43-3.1a14.57,14.57,0,0,0,2.42-1.69A72.24,72.24,0,0,1,1049.25,90.77Z"/><path d="M1545.3,109.78l-10.08-3.38a31.41,31.41,0,0,1-10-5.4,17.86,17.86,0,0,1-5.27-7.47,48.2,48.2,0,0,1-3-8.79c-1.83-10,2.25-17.41,11.72-20.61s16.3-.33,22.33,7.8c3.39,4.58,4.39,9.65,3.48,15.4-.64,4-2.22,7.66-3.53,11.42a67.09,67.09,0,0,1-3.11,7.78A16.45,16.45,0,0,1,1545.3,109.78Zm-23.68-30.15c-.11,4.53,1.87,8.57,3.11,12.77a6.79,6.79,0,0,0,1.35,2c3,3.89,7.1,6,11.66,7.43a41.47,41.47,0,0,0,5,1,1.92,1.92,0,0,0,2.43-1.62c1.28-4.52,2.74-9,3.84-13.56.85-3.52,1.24-7.21-.86-10.48-1.67-2.58-3.68-4.93-5.54-7.39-3.77-1.15-7.47-3.15-11.52-.83-1.22.69-2.59,1.09-3.85,1.71C1523.49,72.43,1521.24,75.22,1521.62,79.63Z"/><path d="M1697.51,34a5.74,5.74,0,0,1,1,1.65c.59,4,1.08,8.06,1.63,12.09.32,2.38.66,4.77,1,7.15.2,1.24.94,1.56,2.18,1.43q3.73-.39,7.49-.49a6.71,6.71,0,0,1,2.58.6,1.88,1.88,0,0,1,1.36,2.37,2.48,2.48,0,0,1-2.41,1.88,51.64,51.64,0,0,0-7.12,1c-1.87.4-2.36,1.26-2,3.06,1.57,8.38,2.79,16.86,4.95,25.1a56.69,56.69,0,0,1,1.46,15.19c0,2-.7,3.53-2.7,4.24-1.54.54-2.84-.41-2.36-1.94,1.39-4.42.72-8.85-.63-12.94-2.76-8.35-3.59-17-5.35-25.55-.09-.39-.15-.79-.24-1.18-.68-3.15-.76-3.23-4-2.81q-3,.41-6,.93a2.53,2.53,0,0,1-3-1.48c-.77-1.46-.73-2.31.78-2.92A47.71,47.71,0,0,1,1693,59.3c3.13-.75,3.54-1.39,3-4.58s-1-6.34-1.32-9.52A29.89,29.89,0,0,1,1695,41a11,11,0,0,0-.11-3.19C1694.25,35.21,1694.24,35.11,1697.51,34Z"/><path d="M1112.77,92.12c-.34,1.5-.71,3.54-1.28,5.53-.45,1.55-1.76,2.1-3.29,2.15-2.14.06-2.81-.9-2.09-3,1.23-3.56.69-7.14.19-10.73-.73-5.16-1.54-10.31-2.16-15.49-.29-2.47-.16-5-.31-7.48a12.75,12.75,0,0,0-.57-2.63c-.69-2.38.09-3.46,2.92-4,1.89-.35,2.93.47,3.12,2.64.41,4.49.66,9,1.1,13.49.37,3.8.93,7.57,1.39,11.36C1112.1,86.5,1112.39,89,1112.77,92.12Z"/><path d="M403.46,72.53l2.22-1.76-2.3-2.45c1.73-1.81,3.46-.75,5-.17s1.67,1.88,1.44,3.28c-1.15,6.82-2.37,13.62-3.41,20.46-.48,3.16-.46,6.39-.95,9.55a93.31,93.31,0,0,1-2.09,9.91,2.83,2.83,0,0,1-3,2c-1.2-.1-1.83-1-2.15-2.2-.37-1.43-1-2.8-1.51-4.35l3-1.62c.36-2.9.73-6,1.13-9,.46-3.58,1-7.15,1.43-10.72.35-2.67.71-5.33,1.07-8a6.71,6.71,0,0,1,.19-1.19A4.17,4.17,0,0,0,403.46,72.53Z"/><path d="M1922.52,80.11c2.45-2.77,3.92-3.06,6.53-1.41.76.48,1.52,1,2.24,1.51a3.24,3.24,0,0,1,1.38,3.15,24.83,24.83,0,0,1-1.05,4.59c-.63,1.87-3.81,2.2-5,.5a5.73,5.73,0,0,1-1.31-3.27,4.19,4.19,0,0,0-2.18-4.19A4,4,0,0,1,1922.52,80.11Z"/><path d="M1095,44.91c-.07-1.76.89-2.52,2.23-2.13,1.73.5,3.15,0,4.65-.59a6.63,6.63,0,0,1,6.83.9c1.61,1.27,1.77,2.78.3,4.64-1.77-1.78-3.94-1.58-6.11-1C1100.05,47.42,1097.66,46.14,1095,44.91Z"/><path d="M1771.6,45.18c-.47.25-.67.45-.82.42-4.64-.75-9.28-1.5-13.91-2.33-.38-.06-1-.67-.92-.94.07-.49.48-1.21.89-1.31a19.43,19.43,0,0,1,5.27-1,31.27,31.27,0,0,1,5.92,1.09C1770.14,41.58,1771.25,43,1771.6,45.18Z"/><path d="M395.78,56.18c.44-.41.82-1,1.34-1.2a4.66,4.66,0,0,1,2.37-.11c3.39.8,6.76,1.66,10.09,2.66a2.34,2.34,0,0,1,1.4,1.69c0,.52-.8,1.21-1.4,1.6-2.34,1.57-4.63.82-6.71-.53s-3.9-3.75-7.13-3.39Z"/><path d="M620.68,90.59l-.24.48c-.15-.09-.4-.16-.43-.28s.13-.31.21-.47Z"/></g></g></svg>